<svg width="16" height="11" viewBox="0 0 16 11" fill="none" xmlns="http://www.w3.org/2000/svg">
<path d="M0 8.80223V7.03823C0.0286797 6.93968 0.0499079 6.83949 0.0635332 6.73834C0.276545 4.75063 1.02479 2.84003 2.24313 1.17293C2.36643 0.986469 2.55331 0.841039 2.77581 0.758386C3.59504 0.45018 4.4441 0.211023 5.31215 0.0439681C5.76176 -0.0398219 5.76176 -0.0354152 5.97678 0.343845C6.19181 0.723105 6.20648 0.718694 6.73916 0.701054C7.56995 0.670184 8.40562 0.661364 9.2413 0.701054C9.83262 0.723104 9.83262 0.758383 10.0965 0.286513C10.2676 -0.0133673 10.2822 -0.0265919 10.6585 0.0439681C11.4946 0.199607 12.3126 0.425501 13.102 0.718697C13.4095 0.822698 13.6693 1.01682 13.84 1.26995C14.8122 2.63913 15.4764 4.16756 15.7947 5.76815C15.8729 6.16946 15.9316 6.57518 16 6.9809V8.83309C15.9816 8.97431 15.9222 9.10863 15.8278 9.22247C15.7334 9.33631 15.6074 9.42562 15.4624 9.48136C15.3745 9.52546 15.2914 9.58279 15.2083 9.6313C14.2617 10.1873 13.2402 10.632 12.1686 10.9543C11.9536 11.0205 11.807 11.0028 11.6799 10.8176C11.504 10.553 11.3134 10.2972 11.1472 10.0282C10.9811 9.7592 11.0348 9.78125 11.2889 9.671C11.5431 9.56075 11.8216 9.45049 12.0757 9.3226C12.1442 9.28732 12.1735 9.1903 12.2175 9.11974C12.1197 9.08005 12.022 9.00067 11.9291 9.00508C11.8056 9.02546 11.6867 9.0642 11.5773 9.11974C9.48431 9.9033 7.14782 9.97692 4.99939 9.32701C4.70128 9.23881 4.40318 9.13297 4.10996 9.03154C3.89493 8.95216 3.75321 8.99626 3.62126 9.22999L4.59866 9.671C4.85767 9.78125 4.87722 9.8077 4.74527 10.0238C4.61332 10.2399 4.41784 10.5398 4.25657 10.7867C4.0953 11.0337 4.05131 11.0381 3.72388 10.9411C2.55738 10.5922 1.44918 10.1011 0.430057 9.48136C0.301378 9.40943 0.194643 9.30963 0.119542 9.19103C0.0444415 9.07243 0.00335035 8.93879 0 8.80223ZM9.22174 6.03274C9.271 6.26538 9.34129 6.494 9.43189 6.71629C9.51875 6.91078 9.65962 7.08181 9.84095 7.21294C10.0223 7.34406 10.238 7.43086 10.4672 7.46497C10.6965 7.49908 10.9316 7.47937 11.15 7.40772C11.3684 7.33607 11.5627 7.21489 11.7141 7.05586C11.9838 6.77191 12.1345 6.41151 12.1399 6.03754C12.1452 5.66357 12.0049 5.29978 11.7434 5.00962C11.613 4.86531 11.4476 4.74994 11.26 4.67238C11.0723 4.59482 10.8675 4.55715 10.6612 4.56226C10.4549 4.56737 10.2527 4.61514 10.07 4.70187C9.88742 4.7886 9.72929 4.91199 9.60782 5.06254C9.37902 5.346 9.24503 5.68269 9.22174 6.03274ZM6.77825 5.98865C6.77825 5.90927 6.77825 5.81665 6.77825 5.72404C6.7552 5.50745 6.67088 5.29982 6.53336 5.12109C6.39584 4.94235 6.20974 4.7985 5.9929 4.70332C5.77606 4.60814 5.53576 4.56483 5.29504 4.57753C5.05432 4.59024 4.82126 4.65855 4.6182 4.7759C4.4074 4.92165 4.23661 5.10924 4.11907 5.32413C4.00153 5.53903 3.94039 5.77546 3.94039 6.0151C3.94039 6.25475 4.00153 6.49118 4.11907 6.70608C4.23661 6.92097 4.4074 7.10856 4.6182 7.25431C4.83167 7.39988 5.09046 7.4812 5.35795 7.48674C5.62545 7.49228 5.88809 7.42177 6.10874 7.28519C6.34195 7.14394 6.5298 6.94973 6.65335 6.72211C6.77689 6.49449 6.83177 6.2415 6.81246 5.98865H6.77825Z" fill="white"/>
</svg>
