<svg width="13" height="13" viewBox="0 0 13 13" fill="none" xmlns="http://www.w3.org/2000/svg">
<path d="M9.14115 0H3.87337C2.84609 0 1.86088 0.407476 1.13448 1.13279C0.408087 1.85811 0 2.84186 0 3.86761V9.13239C0 10.1581 0.408087 11.1419 1.13448 11.8672C1.86088 12.5925 2.84609 13 3.87337 13H9.12663C10.1539 13 11.1391 12.5925 11.8655 11.8672C12.5919 11.1419 13 10.1581 13 9.13239V3.86761C13 2.84436 12.5939 1.86281 11.8707 1.13791C11.1474 0.413011 10.1659 0.00383717 9.14115 0ZM6.5121 9.8479C5.84616 9.84885 5.19491 9.65249 4.6408 9.28365C4.08669 8.91482 3.65464 8.39011 3.39935 7.77596C3.14406 7.16181 3.07701 6.48582 3.20669 5.8336C3.33638 5.18138 3.65696 4.58224 4.12786 4.11205C4.59875 3.64186 5.19878 3.32175 5.85197 3.19226C6.50517 3.06276 7.18216 3.12971 7.79723 3.38462C8.4123 3.63953 8.93779 4.07094 9.30717 4.62423C9.67655 5.17751 9.87321 5.82779 9.87225 6.49274C9.86466 7.38024 9.50822 8.22925 8.8797 8.85683C8.25119 9.48441 7.40092 9.84032 6.5121 9.8479ZM9.9013 3.9643C9.74097 3.96525 9.58398 3.9186 9.45028 3.83025C9.31657 3.74191 9.21218 3.61586 9.15038 3.46814C9.08858 3.32041 9.07217 3.15769 9.10321 3.00063C9.13425 2.84356 9.21136 2.69926 9.32474 2.58606C9.43811 2.47286 9.58262 2.39586 9.73992 2.36486C9.89721 2.33387 10.0602 2.35026 10.2081 2.41197C10.3561 2.47367 10.4823 2.57791 10.5708 2.71142C10.6593 2.84492 10.706 3.00168 10.705 3.16177C10.7044 3.26862 10.6825 3.37428 10.6407 3.47263C10.5989 3.57098 10.5379 3.66006 10.4614 3.73471C10.3848 3.80936 10.2942 3.86809 10.1947 3.9075C10.0952 3.94691 9.98893 3.96622 9.88194 3.9643H9.9013Z" fill="white"/>
</svg>
