<svg width="707" height="176" viewBox="0 0 707 176" fill="none" xmlns="http://www.w3.org/2000/svg">
<path d="M121.113 54.8501L109.046 175.891L65.3556 176L74.1152 87.777H52.0184L43.3667 175.891L0 175.783L11.9831 54.8501H121.113Z" fill="white"/>
<path d="M120.789 175.783L138.093 0H214.784L211.609 32.71H178.715L176.534 54.5126L198.871 54.6211L195.587 87.6685L173.251 87.777L164.372 176L120.789 175.783Z" fill="white"/>
<path d="M199.194 175.783L213.214 32.8185L257.024 32.71L254.939 54.5126L277.276 54.6211L273.992 87.6685L251.548 87.777L246.072 142.856H267.977L264.909 175.891L199.194 175.783Z" fill="white"/>
<path d="M369.929 176L362.919 135.022L347.7 176H304.226L283.303 55.0189H326.778L337.299 118.137L359.851 54.9104H392.373L403.002 118.137L425.554 54.9104L458.088 55.1273L413.415 176H369.929Z" fill="white"/>
<path d="M451.953 176L464.104 54.8501H507.806L495.643 175.783L451.953 176Z" fill="white"/>
<path d="M629.026 54.5126L625.635 87.8854L559.932 87.777L558.614 98.9013H624.425L616.768 175.891L507.578 175.783L510.754 143.073H576.133L577.224 131.949L511.856 131.732L519.513 54.5126H629.026Z" fill="white"/>
<path d="M628.919 175.783L642.939 32.8185L686.737 32.71L684.664 54.5126L707 54.6211L703.717 87.6685L681.26 87.777L675.844 142.856H697.737L694.669 175.891L628.919 175.783Z" fill="white"/>
</svg>
