<svg width="135" height="34" viewBox="0 0 135 34" fill="none" xmlns="http://www.w3.org/2000/svg">
<path d="M23.1262 10.596L20.822 33.979L12.4795 34L14.1521 16.9569H9.9328L8.28076 33.979L0 33.9581L2.28814 10.596H23.1262Z" fill="#262626"/>
<path d="M23.0644 33.9581L26.3685 0H41.0125L40.4062 6.31897H34.1253L33.7088 10.5308L37.9739 10.5518L37.3469 16.936L33.0819 16.9569L31.3864 34L23.0644 33.9581Z" fill="#262626"/>
<path d="M38.0357 33.9581L40.7128 6.33993L49.0782 6.31898L48.6801 10.5308L52.9452 10.5518L52.3182 16.936L48.0325 16.9569L46.9868 27.5972H51.1696L50.5838 33.979L38.0357 33.9581Z" fill="#262626"/>
<path d="M70.637 34L69.2985 26.0838L66.3925 34H58.0912L54.0961 10.6286H62.3975L64.4064 22.8219L68.7127 10.6077H74.9227L76.9523 22.8219L81.2586 10.6077L87.4708 10.6496L78.9407 34H70.637Z" fill="#262626"/>
<path d="M86.2993 34L88.6195 10.596H96.9643L94.6419 33.9581L86.2993 34Z" fill="#262626"/>
<path d="M120.111 10.5308L119.464 16.9779L106.918 16.9569L106.666 19.1059H119.232L117.77 33.979L96.9208 33.9581L97.5272 27.6391H110.011L110.219 25.4901L97.7377 25.4482L99.1998 10.5308H120.111Z" fill="#262626"/>
<path d="M120.091 33.9581L122.768 6.33993L131.131 6.31898L130.735 10.5308L135 10.5518L134.373 16.936L130.085 16.9569L129.051 27.5972H133.231L132.646 33.979L120.091 33.9581Z" fill="#262626"/>
</svg>
