<svg width="17" height="10" viewBox="0 0 17 10" fill="none" xmlns="http://www.w3.org/2000/svg">
<path d="M4.79185 9.99938C3.83444 9.98949 2.90137 9.68651 2.11068 9.12877C1.31999 8.57103 0.707201 7.78358 0.34982 6.86604C-0.007561 5.94849 -0.0934713 4.94207 0.102954 3.97409C0.29938 3.0061 0.769311 2.12004 1.45332 1.42798C2.13732 0.735915 3.00466 0.268947 3.94563 0.0861458C4.88659 -0.0966556 5.8589 0.012926 6.73957 0.401019C7.62024 0.789111 8.3697 1.43828 8.89314 2.26642C9.41659 3.09456 9.6905 4.06445 9.68023 5.05341C9.67713 5.71077 9.54783 6.36097 9.29982 6.96636C9.05182 7.57175 8.69003 8.12032 8.2354 8.58031C7.78077 9.04029 7.24232 9.40257 6.65123 9.64615C6.06015 9.88973 5.42816 10.0098 4.79185 9.99938Z" fill="white"/>
<path d="M15.0538 4.98299C15.056 6.10727 14.812 7.21749 14.34 8.23059C14.1339 8.63532 13.8627 9.00091 13.538 9.31174C13.4018 9.45357 13.2394 9.56569 13.0605 9.64144C12.8815 9.7172 12.6897 9.75504 12.4963 9.75273C12.3029 9.75041 12.1119 9.70798 11.9347 9.62796C11.7575 9.54793 11.5977 9.43195 11.4648 9.28689C10.8264 8.62702 10.4055 7.77626 10.2617 6.85533C9.85272 5.17036 10.0082 3.39197 10.7028 1.80995C10.9035 1.38585 11.175 1.00163 11.5048 0.674956C11.6358 0.532412 11.7927 0.418077 11.9667 0.338561C12.1406 0.259045 12.3281 0.215922 12.5182 0.211685C12.7084 0.207449 12.8975 0.242177 13.0746 0.313872C13.2517 0.385568 13.4133 0.492809 13.55 0.62939C14.2506 1.30497 14.7051 2.20879 14.8373 3.18936C14.9456 3.78585 14.9817 4.38649 15.0538 4.98299Z" fill="white"/>
<path d="M16.9988 5.12798C16.9889 6.24981 16.8924 7.36904 16.71 8.475C16.6579 8.78153 16.5777 9.24547 16.1967 9.20819C16.0042 9.20819 15.7957 8.76082 15.7075 8.47914C15.3336 7.03269 15.2114 5.52914 15.3466 4.03854C15.3536 3.18285 15.4558 2.33083 15.6514 1.49928C15.7356 1.23003 15.8799 0.670818 16.2489 0.766092C16.4975 0.840654 16.6499 1.25074 16.702 1.48686C16.913 2.68802 17.0124 3.90728 16.9988 5.12798Z" fill="white"/>
</svg>
