<svg width="17" height="12" viewBox="0 0 17 12" fill="none" xmlns="http://www.w3.org/2000/svg">
<path d="M16.8669 0.209261C16.7861 0.117442 16.6763 0.0512891 16.5528 0.020076C16.4293 -0.0111371 16.2983 -0.00584881 16.1782 0.0352065L0.575952 5.24182C0.425073 5.29278 0.29224 5.38108 0.191942 5.49706C0.0916445 5.61304 0.027738 5.75225 0.00719856 5.89951C-0.0133409 6.04677 0.010274 6.19642 0.0754677 6.33213C0.140661 6.46783 0.244929 6.58437 0.376891 6.66903L2.50203 8.00674C2.63959 8.09451 2.80043 8.14598 2.96726 8.15562C3.13409 8.16526 3.30061 8.1327 3.44893 8.06144L5.73008 6.94752C5.77848 6.92249 5.83547 6.91571 5.88916 6.92858C5.94285 6.94145 5.98908 6.97298 6.01823 7.0166C6.04737 7.06021 6.05718 7.11254 6.04559 7.16267C6.034 7.21281 6.00192 7.25687 5.95604 7.28568L4.48728 8.28025C4.37228 8.35925 4.27884 8.46198 4.21439 8.58026C4.14994 8.69854 4.11626 8.8291 4.11605 8.96154V11.269C4.11649 11.391 4.15263 11.5106 4.22062 11.6151C4.28862 11.7197 4.38596 11.8053 4.50231 11.8629C4.61867 11.9205 4.74971 11.9479 4.88156 11.9423C5.01341 11.9367 5.14115 11.8982 5.25125 11.8309L6.82224 10.8662C6.8582 10.8443 6.90028 10.8327 6.94329 10.8327C6.98631 10.8327 7.02839 10.8443 7.06435 10.8662L8.60843 11.8607C8.75728 11.9506 8.93099 11.999 9.10878 12C9.25781 12.001 9.40458 11.9663 9.53472 11.8991C9.66486 11.832 9.77393 11.7348 9.85123 11.6171L16.9045 0.865678C16.9728 0.766209 17.0059 0.649551 16.9991 0.531911C16.9924 0.41427 16.9462 0.301496 16.8669 0.209261Z" fill="white"/>
</svg>
