<svg width="13" height="11" viewBox="0 0 13 11" fill="none" xmlns="http://www.w3.org/2000/svg">
<path fill-rule="evenodd" clip-rule="evenodd" d="M12.9923 1.30153C12.5078 1.52946 11.9937 1.67892 11.4674 1.74492C12.0181 1.39674 12.4307 0.848151 12.6285 0.201278C12.1051 0.52731 11.5331 0.756383 10.9372 0.878671C10.6872 0.601371 10.3868 0.380589 10.0543 0.229605C9.72173 0.0786214 9.36382 0.000556433 9.00208 0.00010915C8.65495 -0.00313989 8.31061 0.0661755 7.98874 0.204097C7.66686 0.342018 7.37374 0.545845 7.12613 0.803937C6.87851 1.06203 6.68124 1.36933 6.54559 1.7083C6.40994 2.04726 6.33855 2.41126 6.33552 2.77949C6.33508 2.99377 6.35846 3.20735 6.40518 3.41582C5.34927 3.36173 4.31549 3.07542 3.36943 2.57505C2.42336 2.07468 1.58567 1.37118 0.909498 0.509185C0.673203 0.93309 0.548874 1.41667 0.549569 1.90913C0.549083 2.36789 0.655972 2.8196 0.860645 3.22373C1.06532 3.62786 1.36137 3.97177 1.72224 4.2246C1.29826 4.21048 0.883335 4.09095 0.510866 3.87564V3.91258C0.511048 4.25704 0.572771 4.59834 0.692766 4.91841C0.858502 5.35649 1.12481 5.74368 1.46749 6.04481C1.81017 6.34595 2.21836 6.55146 2.65496 6.64269C2.4232 6.70362 2.18547 6.73532 1.94671 6.73712C1.7792 6.7374 1.61204 6.7209 1.44746 6.68785C1.62174 7.24429 1.95495 7.7294 2.40087 8.07589C2.84678 8.42238 3.3833 8.61307 3.93599 8.62152C2.99096 9.39328 1.83122 9.81057 0.638583 9.80798C0.425175 9.8067 0.211993 9.793 0 9.76693C1.22711 10.5778 2.64509 11.0047 4.0908 10.9986C5.81528 11.0336 7.49739 10.4302 8.84788 9.29204C10.1984 8.15393 11.1328 6.55225 11.4906 4.76241C11.6098 4.21021 11.6708 3.64567 11.6725 3.07918C11.6725 2.96013 11.6725 2.83696 11.6725 2.72201C12.1929 2.32831 12.6425 1.83887 13 1.2769L12.9923 1.30153Z" fill="white"/>
</svg>
