<svg width="15" height="11" viewBox="0 0 15 11" fill="none" xmlns="http://www.w3.org/2000/svg">
<path fill-rule="evenodd" clip-rule="evenodd" d="M9.98675 5.34096L5.93639 7.52329V3.13213L7.77827 4.1261L9.98675 5.34096ZM14.8454 2.37229C14.7757 1.81188 14.5711 1.27675 14.2491 0.81285C14.0558 0.606775 13.8225 0.442167 13.5636 0.329013C13.3047 0.21586 13.0255 0.156527 12.7429 0.154621C10.6405 2.69897e-06 7.49558 0 7.49558 0C7.49558 0 4.35071 2.69897e-06 2.24823 0.154621C1.965 0.157402 1.6853 0.218002 1.42631 0.332707C1.16731 0.447412 0.934475 0.613803 0.742047 0.821687C0.421175 1.28209 0.219337 1.81482 0.154583 2.37229C0.0582132 3.21272 0.00661986 4.0577 0 4.90362V6.08755C0.0065383 6.93494 0.0581317 7.78139 0.154583 8.6233C0.220052 9.18059 0.421826 9.71315 0.742047 10.1739C1.19231 10.5974 1.78478 10.8369 2.40282 10.8454C3.59981 10.9602 7.50442 11 7.50442 11C7.50442 11 10.6493 11 12.7518 10.841C13.0348 10.8367 13.314 10.7754 13.5727 10.6608C13.8315 10.5462 14.0646 10.3806 14.258 10.1739C14.5794 9.71299 14.784 9.18085 14.8542 8.6233C14.9452 7.78102 14.9939 6.93471 15 6.08755V4.90362C14.9938 4.05794 14.9451 3.2131 14.8542 2.37229H14.8454Z" fill="white"/>
</svg>
