<svg width="20" height="20" viewBox="0 0 20 20" fill="none" xmlns="http://www.w3.org/2000/svg">
<path fill-rule="evenodd" clip-rule="evenodd" d="M9.98 0C4.47 0 0 4.47 0 9.98C0 15.49 4.47 19.96 9.98 19.96C15.49 19.96 19.96 15.49 19.96 9.98C19.96 4.47 15.49 0 9.98 0ZM9.98 17.96C5.58 17.96 2 14.38 2 9.98C2 5.58 5.58 2 9.98 2C14.38 2 17.96 5.58 17.96 9.98C17.96 14.38 14.38 17.96 9.98 17.96ZM6.23 11.48L10.73 2.98V8.48H13.73L9.37 16.98V11.48H6.23Z" fill="url(#paint0_linear_67_4615)"/>
<defs>
<linearGradient id="paint0_linear_67_4615" x1="0.186068" y1="15.7187" x2="19.9602" y2="15.6907" gradientUnits="userSpaceOnUse">
<stop stop-color="#00FFDD"/>
<stop offset="0.348958" stop-color="#2BCAE4"/>
<stop offset="0.494792" stop-color="#6383EE"/>
<stop offset="0.65625" stop-color="#904BF5"/>
<stop offset="0.776042" stop-color="#B123FA"/>
<stop offset="0.895833" stop-color="#C50AFE"/>
<stop offset="1" stop-color="#CC01FF"/>
</linearGradient>
</defs>
</svg>
