<svg width="18" height="18" viewBox="0 0 18 18" fill="none" xmlns="http://www.w3.org/2000/svg">
<path fill-rule="evenodd" clip-rule="evenodd" d="M0 0H16C17.11 0 18 0.89 18 2V5C18 6.1 17.11 7 16 7H14V10C14 12.21 12.21 14 10 14H4C1.79 14 0 12.21 0 10V0ZM16 16H0V18H16V16ZM12 10C12 11.1 11.1 12 10 12H4C2.9 12 2 11.1 2 10V2H12V10ZM14 5H16V2H14V5Z" fill="url(#paint0_linear_534_18)"/>
<defs>
<linearGradient id="paint0_linear_534_18" x1="0.167797" y1="14.1752" x2="17.7269" y2="14.2167" gradientUnits="userSpaceOnUse">
<stop stop-color="#00FFDD"/>
<stop offset="0.161458" stop-color="#2BCAE4"/>
<stop offset="0.328125" stop-color="#6383EE"/>
<stop offset="0.505208" stop-color="#904BF5"/>
<stop offset="0.677083" stop-color="#B123FA"/>
<stop offset="0.822917" stop-color="#C50AFE"/>
<stop offset="1" stop-color="#CC01FF"/>
</linearGradient>
</defs>
</svg>
