<svg width="32" height="32" viewBox="0 0 32 32" fill="none" xmlns="http://www.w3.org/2000/svg">
<path fill-rule="evenodd" clip-rule="evenodd" d="M20.2105 0.842105C20.2105 1.31368 19.84 1.68421 19.3684 1.68421C18.8968 1.68421 18.5263 1.31368 18.5263 0.842105C18.5263 0.370526 18.8968 0 19.3684 0C19.84 0 20.2105 0.370526 20.2105 0.842105ZM5.89474 4.21053C4.96842 4.21053 4.21053 4.96842 4.21053 5.89474C4.21053 6.82105 4.96842 7.57895 5.89474 7.57895C6.82105 7.57895 7.57895 6.82105 7.57895 5.89474C7.57895 4.96842 6.82105 4.21053 5.89474 4.21053ZM5.89474 10.9474C4.96842 10.9474 4.21053 11.7053 4.21053 12.6316C4.21053 13.5579 4.96842 14.3158 5.89474 14.3158C6.82105 14.3158 7.57895 13.5579 7.57895 12.6316C7.57895 11.7053 6.82105 10.9474 5.89474 10.9474ZM4.21053 19.3684C4.21053 18.4421 4.96842 17.6842 5.89474 17.6842C6.82105 17.6842 7.57895 18.4421 7.57895 19.3684C7.57895 20.2947 6.82105 21.0526 5.89474 21.0526C4.96842 21.0526 4.21053 20.2947 4.21053 19.3684ZM4.21053 26.1053C4.21053 25.1789 4.96842 24.4211 5.89474 24.4211C6.82105 24.4211 7.57895 25.1789 7.57895 26.1053C7.57895 27.0316 6.82105 27.7895 5.89474 27.7895C4.96842 27.7895 4.21053 27.0316 4.21053 26.1053ZM0 12.6316C0 12.16 0.370526 11.7895 0.842105 11.7895C1.31368 11.7895 1.68421 12.16 1.68421 12.6316C1.68421 13.1032 1.31368 13.4737 0.842105 13.4737C0.370526 13.4737 0 13.1032 0 12.6316ZM32 12.6316C32 13.1032 31.6295 13.4737 31.1579 13.4737C30.6863 13.4737 30.3158 13.1032 30.3158 12.6316C30.3158 12.16 30.6863 11.7895 31.1579 11.7895C31.6295 11.7895 32 12.16 32 12.6316ZM19.3684 7.57895C20.2947 7.57895 21.0526 6.82105 21.0526 5.89474C21.0526 4.96842 20.2947 4.21053 19.3684 4.21053C18.4421 4.21053 17.6842 4.96842 17.6842 5.89474C17.6842 6.82105 18.4421 7.57895 19.3684 7.57895ZM0.842105 18.5263C0.370526 18.5263 0 18.8968 0 19.3684C0 19.84 0.370526 20.2105 0.842105 20.2105C1.31368 20.2105 1.68421 19.84 1.68421 19.3684C1.68421 18.8968 1.31368 18.5263 0.842105 18.5263ZM11.7895 31.1579C11.7895 30.6863 12.16 30.3158 12.6316 30.3158C13.1032 30.3158 13.4737 30.6863 13.4737 31.1579C13.4737 31.6295 13.1032 32 12.6316 32C12.16 32 11.7895 31.6295 11.7895 31.1579ZM12.6316 1.68421C13.1032 1.68421 13.4737 1.31368 13.4737 0.842105C13.4737 0.370526 13.1032 0 12.6316 0C12.16 0 11.7895 0.370526 11.7895 0.842105C11.7895 1.31368 12.16 1.68421 12.6316 1.68421ZM14.3158 5.89474C14.3158 6.82105 13.5579 7.57895 12.6316 7.57895C11.7053 7.57895 10.9474 6.82105 10.9474 5.89474C10.9474 4.96842 11.7053 4.21053 12.6316 4.21053C13.5579 4.21053 14.3158 4.96842 14.3158 5.89474ZM12.6316 16.8421C11.2337 16.8421 10.1053 17.9705 10.1053 19.3684C10.1053 20.7663 11.2337 21.8947 12.6316 21.8947C14.0295 21.8947 15.1579 20.7663 15.1579 19.3684C15.1579 17.9705 14.0295 16.8421 12.6316 16.8421ZM24.4211 19.3684C24.4211 18.4421 25.1789 17.6842 26.1053 17.6842C27.0316 17.6842 27.7895 18.4421 27.7895 19.3684C27.7895 20.2947 27.0316 21.0526 26.1053 21.0526C25.1789 21.0526 24.4211 20.2947 24.4211 19.3684ZM26.1053 24.4211C25.1789 24.4211 24.4211 25.1789 24.4211 26.1053C24.4211 27.0316 25.1789 27.7895 26.1053 27.7895C27.0316 27.7895 27.7895 27.0316 27.7895 26.1053C27.7895 25.1789 27.0316 24.4211 26.1053 24.4211ZM24.4211 12.6316C24.4211 11.7053 25.1789 10.9474 26.1053 10.9474C27.0316 10.9474 27.7895 11.7053 27.7895 12.6316C27.7895 13.5579 27.0316 14.3158 26.1053 14.3158C25.1789 14.3158 24.4211 13.5579 24.4211 12.6316ZM26.1053 4.21053C25.1789 4.21053 24.4211 4.96842 24.4211 5.89474C24.4211 6.82105 25.1789 7.57895 26.1053 7.57895C27.0316 7.57895 27.7895 6.82105 27.7895 5.89474C27.7895 4.96842 27.0316 4.21053 26.1053 4.21053ZM30.3158 19.3684C30.3158 18.8968 30.6863 18.5263 31.1579 18.5263C31.6295 18.5263 32 18.8968 32 19.3684C32 19.84 31.6295 20.2105 31.1579 20.2105C30.6863 20.2105 30.3158 19.84 30.3158 19.3684ZM19.3684 24.4211C18.4421 24.4211 17.6842 25.1789 17.6842 26.1053C17.6842 27.0316 18.4421 27.7895 19.3684 27.7895C20.2947 27.7895 21.0526 27.0316 21.0526 26.1053C21.0526 25.1789 20.2947 24.4211 19.3684 24.4211ZM18.5263 31.1579C18.5263 30.6863 18.8968 30.3158 19.3684 30.3158C19.84 30.3158 20.2105 30.6863 20.2105 31.1579C20.2105 31.6295 19.84 32 19.3684 32C18.8968 32 18.5263 31.6295 18.5263 31.1579ZM12.6316 10.1053C11.2337 10.1053 10.1053 11.2337 10.1053 12.6316C10.1053 14.0295 11.2337 15.1579 12.6316 15.1579C14.0295 15.1579 15.1579 14.0295 15.1579 12.6316C15.1579 11.2337 14.0295 10.1053 12.6316 10.1053ZM10.9474 26.1053C10.9474 25.1789 11.7053 24.4211 12.6316 24.4211C13.5579 24.4211 14.3158 25.1789 14.3158 26.1053C14.3158 27.0316 13.5579 27.7895 12.6316 27.7895C11.7053 27.7895 10.9474 27.0316 10.9474 26.1053ZM19.3684 16.8421C17.9705 16.8421 16.8421 17.9705 16.8421 19.3684C16.8421 20.7663 17.9705 21.8947 19.3684 21.8947C20.7663 21.8947 21.8947 20.7663 21.8947 19.3684C21.8947 17.9705 20.7663 16.8421 19.3684 16.8421ZM16.8421 12.6316C16.8421 11.2337 17.9705 10.1053 19.3684 10.1053C20.7663 10.1053 21.8947 11.2337 21.8947 12.6316C21.8947 14.0295 20.7663 15.1579 19.3684 15.1579C17.9705 15.1579 16.8421 14.0295 16.8421 12.6316Z" fill="url(#paint0_linear_67_4149)"/>
<defs>
<linearGradient id="paint0_linear_67_4149" x1="0.298305" y1="25.2003" x2="31.5145" y2="25.2741" gradientUnits="userSpaceOnUse">
<stop stop-color="#00FFDD"/>
<stop offset="0.348958" stop-color="#2BCAE4"/>
<stop offset="0.494792" stop-color="#6383EE"/>
<stop offset="0.65625" stop-color="#904BF5"/>
<stop offset="0.776042" stop-color="#B123FA"/>
<stop offset="0.895833" stop-color="#C50AFE"/>
<stop offset="1" stop-color="#CC01FF"/>
</linearGradient>
</defs>
</svg>
