<svg width="83" height="83" viewBox="0 0 83 83" fill="none" xmlns="http://www.w3.org/2000/svg">
<path fill-rule="evenodd" clip-rule="evenodd" d="M55.5706 52.2013H59.3196L83 75.9291L75.9291 83L52.2013 59.3196V55.5706L50.92 54.2419C45.51 58.8925 38.4866 61.6924 30.8462 61.6924C13.8096 61.6924 0 47.8828 0 30.8462C0 13.8096 13.8096 0 30.8462 0C47.8828 0 61.6924 13.8096 61.6924 30.8462C61.6924 38.4866 58.8925 45.51 54.2419 50.92L55.5706 52.2013ZM9.49114 30.8462C9.49114 42.6627 19.0297 52.2013 30.8462 52.2013C42.6627 52.2013 52.2013 42.6627 52.2013 30.8462C52.2013 19.0297 42.6627 9.49114 30.8462 9.49114C19.0297 9.49114 9.49114 19.0297 9.49114 30.8462Z" fill="#C4C4C4"/>
</svg>
