<svg width="20" height="20" viewBox="0 0 20 20" fill="none" xmlns="http://www.w3.org/2000/svg">
<path fill-rule="evenodd" clip-rule="evenodd" d="M10 0C4.48 0 0 4.48 0 10C0 15.52 4.48 20 10 20C15.52 20 20 15.52 20 10C20 4.48 15.52 0 10 0ZM8.5 5C8.5 5.28 8.28 5.5 8 5.5C7.72 5.5 7.5 5.28 7.5 5C7.5 4.72 7.72 4.5 8 4.5C8.28 4.5 8.5 4.72 8.5 5ZM7 8C7 7.45 7.45 7 8 7C8.55 7 9 7.45 9 8C9 8.55 8.55 9 8 9C7.45 9 7 8.55 7 8ZM7 12C7 11.45 7.45 11 8 11C8.55 11 9 11.45 9 12C9 12.55 8.55 13 8 13C7.45 13 7 12.55 7 12ZM5 7.5C4.72 7.5 4.5 7.72 4.5 8C4.5 8.28 4.72 8.5 5 8.5C5.28 8.5 5.5 8.28 5.5 8C5.5 7.72 5.28 7.5 5 7.5ZM7.5 15C7.5 14.72 7.72 14.5 8 14.5C8.28 14.5 8.5 14.72 8.5 15C8.5 15.28 8.28 15.5 8 15.5C7.72 15.5 7.5 15.28 7.5 15ZM5 11.5C4.72 11.5 4.5 11.72 4.5 12C4.5 12.28 4.72 12.5 5 12.5C5.28 12.5 5.5 12.28 5.5 12C5.5 11.72 5.28 11.5 5 11.5ZM12 7C11.45 7 11 7.45 11 8C11 8.55 11.45 9 12 9C12.55 9 13 8.55 13 8C13 7.45 12.55 7 12 7ZM12.5 5C12.5 5.28 12.28 5.5 12 5.5C11.72 5.5 11.5 5.28 11.5 5C11.5 4.72 11.72 4.5 12 4.5C12.28 4.5 12.5 4.72 12.5 5ZM15 11.5C14.72 11.5 14.5 11.72 14.5 12C14.5 12.28 14.72 12.5 15 12.5C15.28 12.5 15.5 12.28 15.5 12C15.5 11.72 15.28 11.5 15 11.5ZM14.5 8C14.5 7.72 14.72 7.5 15 7.5C15.28 7.5 15.5 7.72 15.5 8C15.5 8.28 15.28 8.5 15 8.5C14.72 8.5 14.5 8.28 14.5 8ZM2 10C2 14.42 5.58 18 10 18C14.42 18 18 14.42 18 10C18 5.58 14.42 2 10 2C5.58 2 2 5.58 2 10ZM12 14.5C11.72 14.5 11.5 14.72 11.5 15C11.5 15.28 11.72 15.5 12 15.5C12.28 15.5 12.5 15.28 12.5 15C12.5 14.72 12.28 14.5 12 14.5ZM11 12C11 11.45 11.45 11 12 11C12.55 11 13 11.45 13 12C13 12.55 12.55 13 12 13C11.45 13 11 12.55 11 12Z" fill="#262626"/>
</svg>
