<svg width="21" height="20" viewBox="0 0 21 20" fill="none" xmlns="http://www.w3.org/2000/svg">
<path fill-rule="evenodd" clip-rule="evenodd" d="M10.52 0C5.01 0 0.540001 4.47 0.540001 9.98C0.540001 15.49 5.01 19.96 10.52 19.96C16.03 19.96 20.5 15.49 20.5 9.98C20.5 4.47 16.03 0 10.52 0ZM10.52 17.96C6.12 17.96 2.54 14.38 2.54 9.98C2.54 5.58 6.12 2 10.52 2C14.92 2 18.5 5.58 18.5 9.98C18.5 14.38 14.92 17.96 10.52 17.96ZM6.77 11.48L11.27 2.98V8.48H14.27L9.91 16.98V11.48H6.77Z" fill="#262626"/>
</svg>
