<svg width="21" height="21" viewBox="0 0 21 21" fill="#000" xmlns="http://www.w3.org/2000/svg">
<path d="M0 16.7701V4.24886C0.0957422 3.88896 0.303663 3.643 0.665676 3.51179C3.8127 2.37245 6.95822 1.22845 10.1022 0.0797904C10.3696 -0.0255938 10.6667 -0.0266217 10.9347 0.0769109C12.55 0.67167 14.1682 1.25738 15.7835 1.84556C17.3118 2.40165 18.8398 2.95734 20.3676 3.51261C20.8348 3.68248 21 3.9194 21 4.4175V16.6265C21 17.0864 20.8233 17.3422 20.3836 17.5018C17.699 18.4788 15.0144 19.4552 12.3298 20.4312C11.8268 20.6146 11.3288 20.81 10.8283 21H10.212C10.1671 20.9724 10.1205 20.9479 10.0722 20.9268C6.98192 19.8025 3.89036 18.6796 0.797577 17.5581C0.396939 17.4113 0.106837 17.1949 0 16.7701ZM9.63051 18.871C9.63462 18.813 9.63873 18.7859 9.63873 18.7587C9.63873 15.3939 9.64024 12.0291 9.64325 8.66431C9.64325 8.50677 9.56107 8.47593 9.44766 8.43479C6.97918 7.53758 4.51139 6.63955 2.04428 5.74069C1.96497 5.7119 1.88238 5.69134 1.78952 5.66337V16.0174L9.63051 18.871ZM19.2499 16.0206V5.6609C19.1562 5.69092 19.079 5.71272 19.0034 5.74028C16.5426 6.63694 14.0812 7.53265 11.6193 8.42739C11.4632 8.48415 11.4028 8.55078 11.4032 8.72477C11.4095 12.0279 11.411 15.3311 11.4077 18.6345V18.8743L19.2499 16.0206ZM3.51411 4.38048C3.57575 4.40516 3.59629 4.41421 3.62053 4.42161C5.88301 5.24588 8.14589 6.06851 10.4092 6.88949C10.4914 6.91993 10.6105 6.90265 10.6968 6.87057C12.3925 6.25853 14.0868 5.64335 15.7798 5.02501C16.351 4.81688 16.9213 4.60753 17.5249 4.38665C17.4563 4.35498 17.4222 4.33647 17.3856 4.32331C15.1363 3.50397 12.8862 2.68628 10.6352 1.87024C10.5465 1.84478 10.452 1.84853 10.3656 1.88093C8.2226 2.65612 6.08093 3.4346 3.94063 4.21637C3.80914 4.26285 3.67888 4.31508 3.51205 4.37924L3.51411 4.38048Z" fill="black"/>
</svg>
