<svg width="25" height="19" viewBox="0 0 25 19" fill="none" xmlns="http://www.w3.org/2000/svg">
<path d="M0 15.2038V12.1569C0.044812 11.9867 0.0779811 11.8137 0.0992706 11.639C0.432101 8.20563 1.60123 4.90551 3.50488 2.02596C3.69754 1.7039 3.98954 1.4527 4.33721 1.30994C5.61725 0.777583 6.94391 0.364495 8.30024 0.0759448C9.00275 -0.0687833 9.00275 -0.0611716 9.33873 0.593914C9.67471 1.249 9.69762 1.24138 10.5299 1.21091C11.828 1.15759 13.1338 1.14236 14.4395 1.21091C15.3635 1.249 15.3635 1.30993 15.7758 0.494886C16.0431 -0.023089 16.066 -0.0459315 16.6539 0.0759448C17.9602 0.344775 19.2385 0.734956 20.4719 1.24139C20.9523 1.42102 21.3583 1.75632 21.6249 2.19355C23.144 4.5585 24.1819 7.19851 24.6793 9.96316C24.8015 10.6563 24.8931 11.3571 25 12.0579V15.2572C24.9713 15.5011 24.8785 15.7331 24.731 15.9297C24.5835 16.1263 24.3865 16.2806 24.16 16.3769C24.0226 16.4531 23.8928 16.5521 23.763 16.6359C22.2838 17.5963 20.6877 18.3643 19.0134 18.9211C18.6775 19.0353 18.4484 19.0049 18.2499 18.6849C17.975 18.2279 17.6771 17.7861 17.4175 17.3214C17.1579 16.8568 17.2419 16.8949 17.639 16.7045C18.036 16.514 18.4713 16.3236 18.8684 16.1027C18.9753 16.0417 19.0211 15.8742 19.0898 15.7523C18.9371 15.6837 18.7844 15.5466 18.6393 15.5542C18.4463 15.5894 18.2605 15.6564 18.0895 15.7523C14.8192 17.1057 11.1685 17.2329 7.81154 16.1103C7.34575 15.9579 6.87996 15.7751 6.42181 15.5999C6.08583 15.4628 5.86439 15.539 5.65822 15.9427L7.1854 16.7045C7.59011 16.8949 7.62065 16.9406 7.41448 17.3138C7.20831 17.6871 6.90287 18.2051 6.65089 18.6316C6.3989 19.0582 6.33017 19.0658 5.81856 18.8982C3.9959 18.2956 2.26435 17.4473 0.671964 16.3769C0.470904 16.2526 0.30413 16.0803 0.186785 15.8754C0.0694398 15.6706 0.00523493 15.4397 0 15.2038ZM14.409 10.4202C14.4859 10.822 14.5958 11.2169 14.7373 11.6009C14.873 11.9368 15.0932 12.2322 15.3765 12.4587C15.6598 12.6852 15.9968 12.8351 16.355 12.894C16.7133 12.953 17.0807 12.9189 17.4219 12.7951C17.7631 12.6714 18.0667 12.4621 18.3033 12.1874C18.7247 11.6969 18.9602 11.0744 18.9686 10.4285C18.9769 9.78253 18.7577 9.15416 18.3491 8.65299C18.1453 8.40373 17.8869 8.20444 17.5937 8.07048C17.3005 7.93651 16.9805 7.87144 16.6581 7.88027C16.3358 7.8891 16.0198 7.9716 15.7344 8.12141C15.4491 8.27122 15.202 8.48435 15.0122 8.74439C14.6547 9.234 14.4454 9.81556 14.409 10.4202ZM10.591 10.344C10.591 10.2069 10.591 10.0469 10.591 9.88698C10.555 9.51286 10.4232 9.15424 10.2084 8.84551C9.99349 8.53679 9.70271 8.28831 9.3639 8.12391C9.0251 7.95951 8.64962 7.8847 8.2735 7.90665C7.89738 7.9286 7.53322 8.04658 7.21594 8.24927C6.88656 8.50103 6.61971 8.82504 6.43605 9.19623C6.25239 9.56741 6.15685 9.97579 6.15685 10.3897C6.15685 10.8037 6.25239 11.212 6.43605 11.5832C6.61971 11.9544 6.88656 12.2784 7.21594 12.5302C7.54948 12.7816 7.95385 12.9221 8.3718 12.9316C8.78976 12.9412 9.20015 12.8194 9.5449 12.5835C9.9093 12.3395 10.2028 12.0041 10.3959 11.6109C10.5889 11.2177 10.6746 10.7808 10.6445 10.344H10.591Z" fill="#262626"/>
</svg>
