<svg width="21" height="21" viewBox="0 0 21 21" fill="none" xmlns="http://www.w3.org/2000/svg">
<path d="M14.7665 0H6.25698C4.59752 0 3.00604 0.658231 1.83263 1.8299C0.659217 3.00156 0 4.59069 0 6.24768V14.7523C0 16.4093 0.659217 17.9984 1.83263 19.1701C3.00604 20.3418 4.59752 21 6.25698 21H14.743C16.4025 21 17.994 20.3418 19.1674 19.1701C20.3408 17.9984 21 16.4093 21 14.7523V6.24768C21 4.59474 20.344 3.00916 19.1757 1.83817C18.0073 0.667172 16.4219 0.00619851 14.7665 0ZM10.5195 15.9081C9.44379 15.9097 8.39178 15.5925 7.49667 14.9967C6.60157 14.4009 5.90364 13.5533 5.49125 12.5612C5.07887 11.5691 4.97055 10.4771 5.18005 9.42351C5.38954 8.36991 5.9074 7.40208 6.66808 6.64254C7.42875 5.883 8.39802 5.3659 9.45319 5.15672C10.5083 4.94754 11.6019 5.05569 12.5955 5.46747C13.5891 5.87924 14.438 6.57613 15.0347 7.4699C15.6313 8.36367 15.949 9.41413 15.9475 10.4883C15.9352 11.9219 15.3594 13.2934 14.3441 14.3072C13.3288 15.321 11.9553 15.8959 10.5195 15.9081ZM15.9944 6.40387C15.7354 6.40541 15.4818 6.33004 15.2658 6.18733C15.0498 6.04462 14.8812 5.841 14.7814 5.60237C14.6816 5.36375 14.655 5.10088 14.7052 4.84717C14.7553 4.59345 14.8799 4.36035 15.063 4.17748C15.2462 3.99462 15.4796 3.87024 15.7337 3.82017C15.9878 3.77009 16.2511 3.79657 16.4901 3.89625C16.729 3.99593 16.933 4.16431 17.0759 4.37998C17.2188 4.59565 17.2943 4.84886 17.2927 5.10747C17.2917 5.28007 17.2564 5.45076 17.1889 5.60963C17.1213 5.7685 17.0228 5.91241 16.8991 6.033C16.7755 6.15359 16.629 6.24846 16.4684 6.31212C16.3077 6.37578 16.136 6.40697 15.9631 6.40387H15.9944Z" fill="#262626"/>
</svg>
