<svg width="81" height="20" viewBox="0 0 81 20" fill="none" xmlns="http://www.w3.org/2000/svg">
<path d="M13.8757 6.23296L12.4932 19.9877L7.4877 20L8.49127 9.97466H5.95968L4.96846 19.9877L0 19.9753L1.37288 6.23296H13.8757Z" fill="white"/>
<path d="M13.8386 19.9753L15.8211 0H24.6075L24.2437 3.71704H20.4752L20.2253 6.19461L22.7843 6.20694L22.4082 9.96233L19.8491 9.97466L18.8318 20L13.8386 19.9753Z" fill="white"/>
<path d="M22.8214 19.9753L24.4277 3.72937L29.4469 3.71705L29.208 6.19462L31.7671 6.20695L31.3909 9.96234L28.8195 9.97466L28.1921 16.2336H30.7017L30.3503 19.9877L22.8214 19.9753Z" fill="white"/>
<path d="M42.3822 20L41.5791 15.3434L39.8355 20H34.8547L32.4577 6.25215H37.4385L38.6439 13.4246L41.2276 6.23982H44.9536L46.1714 13.4246L48.7551 6.23982L52.4825 6.26447L47.3644 20H42.3822Z" fill="white"/>
<path d="M51.7796 20L53.1717 6.23296H58.1786L56.7851 19.9753L51.7796 20Z" fill="white"/>
<path d="M72.0667 6.19461L71.6781 9.98698L64.1506 9.97466L63.9996 11.2388H71.5395L70.6622 19.9877L58.1525 19.9753L58.5163 16.2583H66.0068L66.1317 14.9942L58.6426 14.9695L59.5199 6.19461H72.0667Z" fill="white"/>
<path d="M72.0543 19.9753L73.6606 3.72937L78.6785 3.71705L78.4409 6.19462L81 6.20695L80.6238 9.96234L78.0511 9.97466L77.4305 16.2336H79.9388L79.5873 19.9877L72.0543 19.9753Z" fill="white"/>
</svg>
