<svg width="339" height="84" viewBox="0 0 339 84" fill="none" xmlns="http://www.w3.org/2000/svg">
<path d="M58.0724 26.1785L52.2864 83.9482L31.3374 84L35.5375 41.8936H24.9424L20.7939 83.9482L0 83.8964L5.74576 26.1785H58.0724Z" fill="#262626"/>
<path d="M57.9173 83.8964L66.2142 0H102.987L101.464 15.6116H85.6923L84.6466 26.0174L95.3567 26.0692L93.7823 41.8418L83.0722 41.8936L78.8146 84L57.9173 83.8964Z" fill="#262626"/>
<path d="M95.5118 83.8964L102.234 15.6634L123.241 15.6116L122.241 26.0174L132.951 26.0692L131.377 41.8418L120.615 41.8936L117.989 68.1813H128.492L127.022 83.9482L95.5118 83.8964Z" fill="#262626"/>
<path d="M177.377 84L174.016 64.4424L166.719 84H145.873L135.841 26.259H156.687L161.732 56.3835L172.545 26.2072H188.139L193.236 56.3835L204.049 26.2072L219.649 26.3108L198.229 84H177.377Z" fill="#262626"/>
<path d="M216.707 84L222.533 26.1785H243.488L237.656 83.8964L216.707 84Z" fill="#262626"/>
<path d="M301.612 26.0174L299.986 41.9453L268.482 41.8936L267.85 47.2029H299.406L295.734 83.9482L243.379 83.8964L244.902 68.2848H276.25L276.773 62.9755L245.43 62.872L249.102 26.0174H301.612Z" fill="#262626"/>
<path d="M301.561 83.8964L308.283 15.6634L329.284 15.6116L328.29 26.0174L339 26.0692L337.426 41.8418L326.658 41.8936L324.061 68.1813H334.559L333.088 83.9482L301.561 83.8964Z" fill="#262626"/>
</svg>
