<svg width="28" height="16" viewBox="0 0 28 16" fill="none" xmlns="http://www.w3.org/2000/svg">
<path d="M7.89246 15.999C6.31554 15.9832 4.77873 15.4984 3.47642 14.606C2.1741 13.7137 1.1648 12.4537 0.576174 10.9857C-0.0124534 9.51759 -0.153953 7.90732 0.169572 6.35854C0.493096 4.80976 1.2671 3.39206 2.3937 2.28476C3.52029 1.17746 4.94885 0.430316 6.49868 0.137833C8.0485 -0.154649 9.64995 0.0206817 11.1005 0.64163C12.551 1.26258 13.7854 2.30125 14.6475 3.62627C15.5097 4.95129 15.9608 6.50312 15.9439 8.08546C15.9388 9.13724 15.7258 10.1775 15.3174 11.1462C14.9089 12.1148 14.313 12.9925 13.5642 13.7285C12.8154 14.4645 11.9285 15.0441 10.955 15.4338C9.98142 15.8236 8.94049 16.0157 7.89246 15.999Z" fill="#262626"/>
<path d="M24.7946 7.97279C24.7981 9.77163 24.3962 11.548 23.6189 13.1689C23.2794 13.8165 22.8327 14.4015 22.2979 14.8988C22.0736 15.1257 21.8061 15.3051 21.5114 15.4263C21.2166 15.5475 20.9006 15.6081 20.5821 15.6044C20.2636 15.6007 19.9491 15.5328 19.6572 15.4047C19.3654 15.2767 19.1021 15.0911 18.8831 14.859C17.8318 13.8032 17.1385 12.442 16.9016 10.9685C16.228 8.27258 16.4841 5.42716 17.6282 2.89593C17.9587 2.21736 18.4058 1.60261 18.9492 1.07993C19.1648 0.851858 19.4233 0.668924 19.7098 0.541698C19.9963 0.414472 20.3051 0.345476 20.6183 0.338697C20.9315 0.331918 21.243 0.387483 21.5346 0.502196C21.8263 0.616908 22.0925 0.788494 22.3177 1.00702C23.4716 2.08795 24.2202 3.53407 24.4379 5.10297C24.6162 6.05737 24.6757 7.01839 24.7946 7.97279Z" fill="#262626"/>
<path d="M27.998 8.20477C27.9818 9.9997 27.8227 11.7905 27.5224 13.56C27.4365 14.0504 27.3044 14.7928 26.677 14.7331C26.3599 14.7331 26.0165 14.0173 25.8712 13.5666C25.2553 11.2523 25.0541 8.84662 25.2767 6.46167C25.2882 5.09256 25.4566 3.72932 25.7787 2.39885C25.9174 1.96805 26.1552 1.07331 26.7628 1.22575C27.1723 1.34505 27.4233 2.00119 27.5092 2.37897C27.8568 4.30083 28.0204 6.25165 27.998 8.20477Z" fill="#262626"/>
</svg>
