<svg width="207" height="31" viewBox="0 0 207 31" fill="none" xmlns="http://www.w3.org/2000/svg">
<path d="M49.2812 29.5V26.4C48.9408 26.8703 48.5657 27.3133 48.1595 27.7251C47.7575 28.1532 47.3073 28.5309 46.8184 28.8501C46.2969 29.1735 45.7404 29.4336 45.1602 29.6251C44.4929 29.8121 43.8037 29.9046 43.1119 29.9001C42.1283 29.965 41.1427 29.8083 40.2244 29.4412C39.3061 29.0741 38.4772 28.5054 37.7961 27.775C36.4758 26.1164 35.8062 24.0127 35.9184 21.875V7.85004H41.9171V19.9251C41.8315 21.0994 42.17 22.265 42.8681 23.2001C43.2041 23.5821 43.6197 23.8815 44.084 24.0762C44.5484 24.271 45.0495 24.3561 45.5503 24.3251C46.0578 24.3514 46.5649 24.2644 47.0364 24.0701C47.5079 23.8759 47.9327 23.579 48.2814 23.2001C49.0188 22.284 49.3777 21.1087 49.2812 19.9251V7.85004H55.2797V29.525L49.2812 29.5Z" fill="#262626"/>
<path d="M71.6416 29.5V17.4502C71.7154 16.2695 71.3784 15.1002 70.6906 14.1502C70.3549 13.7761 69.9423 13.4833 69.4825 13.2931C69.0228 13.1028 68.5277 13.0198 68.0328 13.0501C67.5239 13.0252 67.0156 13.1103 66.5409 13.2998C66.0662 13.4893 65.6357 13.779 65.2773 14.1502C64.5539 15.0836 64.1972 16.2608 64.2775 17.4502V29.5H58.279V7.85011H64.2775V10.9501C64.6241 10.4849 64.9988 10.0424 65.3992 9.62516C65.8168 9.21198 66.2744 8.84341 66.7647 8.52516C67.2761 8.18244 67.8351 7.92114 68.4229 7.75016C69.0859 7.5401 69.7773 7.43887 70.4712 7.45017C71.4529 7.39045 72.4353 7.5519 73.3495 7.92335C74.2637 8.2948 75.0874 8.86719 75.7626 9.60014C77.0871 11.2563 77.7572 13.3617 77.6403 15.5001V29.5251L71.6416 29.5Z" fill="#262626"/>
<path d="M95.5872 28.875C94.0006 29.688 92.2386 30.0751 90.4664 30C88.9505 30.0137 87.4482 29.7073 86.0528 29.1C84.7458 28.5019 83.5623 27.6533 82.5658 26.6C81.5858 25.5696 80.8076 24.3561 80.2737 23.025C79.7255 21.6524 79.444 20.1833 79.4447 18.7001C79.4464 17.209 79.7278 15.732 80.2737 14.35C80.807 13.0112 81.5851 11.7893 82.5658 10.75C83.5567 9.68985 84.7415 8.84034 86.0528 8.24995C87.4724 7.63802 88.9997 7.33172 90.5396 7.34999C92.2152 7.30544 93.88 7.6383 95.4165 8.32502C96.7246 8.9853 97.8993 9.89288 98.879 11L95.4165 15.1001C94.8023 14.4244 94.096 13.8434 93.3195 13.3751C92.4545 12.9508 91.4952 12.7695 90.5396 12.85C89.8218 12.8379 89.1115 13.0007 88.467 13.325C87.8491 13.6293 87.3006 14.0638 86.8575 14.6C86.3878 15.1501 86.0238 15.7863 85.7846 16.475C85.5368 17.2064 85.4131 17.9758 85.4189 18.75C85.4115 19.5488 85.535 20.3432 85.7846 21.1C86.0225 21.8023 86.3957 22.4484 86.8819 23C87.3429 23.5484 87.9178 23.9841 88.5645 24.275C89.2629 24.5929 90.0192 24.7548 90.7834 24.75C91.6901 24.766 92.5866 24.5513 93.3925 24.125C94.2055 23.6647 94.9592 23.1021 95.636 22.4501L99.1474 26.075C98.1176 27.2011 96.9149 28.147 95.5872 28.875Z" fill="#262626"/>
<path d="M113.997 29.5V17.4501C114.071 16.2694 113.734 15.1001 113.046 14.1501C112.706 13.7755 112.289 13.4825 111.825 13.2924C111.362 13.1022 110.863 13.0195 110.364 13.0501C109.859 13.0255 109.354 13.1109 108.884 13.3005C108.413 13.4901 107.987 13.7796 107.633 14.1501C106.901 15.0788 106.543 16.2596 106.633 17.4501V29.5H100.635V0H106.633V10.925C106.98 10.4598 107.355 10.0173 107.755 9.60007C108.164 9.18706 108.613 8.81843 109.096 8.50006C109.612 8.16666 110.17 7.90599 110.754 7.72507C111.418 7.51702 112.109 7.41583 112.803 7.42508C113.788 7.36507 114.774 7.52628 115.692 7.89764C116.61 8.269 117.438 8.84151 118.118 9.57504C119.443 11.2312 120.113 13.3367 119.996 15.475V29.5H113.997Z" fill="#262626"/>
<path d="M142.527 20.0501C142.527 20.2501 142.527 20.5251 142.527 20.8001H127.896C128.083 22.0549 128.728 23.19 129.701 23.9751C130.67 24.7172 131.857 25.0966 133.066 25.0501C133.986 25.067 134.899 24.8882 135.748 24.525C136.65 24.1055 137.475 23.5305 138.187 22.8251L141.625 25.9501C140.64 27.2015 139.4 28.2169 137.992 28.9251C136.426 29.6677 134.717 30.0353 132.993 30.0001C131.492 30.0162 130.002 29.7362 128.604 29.1752C127.285 28.6768 126.087 27.8921 125.092 26.8751C124.054 25.8823 123.224 24.6829 122.654 23.3501C122.085 21.9052 121.803 20.3582 121.825 18.8001C121.822 17.3133 122.087 15.8387 122.605 14.4501C123.087 13.1191 123.815 11.8966 124.751 10.8501C125.663 9.78727 126.785 8.93515 128.043 8.35013C129.376 7.73576 130.824 7.42858 132.286 7.45016C133.859 7.41086 135.419 7.74442 136.846 8.42505C138.081 9.01187 139.179 9.86452 140.065 10.925C140.93 12.0457 141.576 13.3277 141.966 14.7001C142.37 16.1386 142.575 17.6282 142.576 19.1251C142.552 19.5751 142.527 19.8251 142.527 20.0501ZM135.212 13.6251C134.825 13.2055 134.355 12.8765 133.834 12.6607C133.312 12.445 132.75 12.3475 132.188 12.3751C131.619 12.3469 131.05 12.4438 130.52 12.6594C129.99 12.8749 129.511 13.2042 129.116 13.6251C128.294 14.5602 127.767 15.7279 127.604 16.9752H136.626C136.528 15.7431 136.059 14.5726 135.285 13.6251H135.212Z" fill="#262626"/>
<path d="M164.327 20.0501C164.327 20.2501 164.327 20.525 164.327 20.8H149.696C149.883 22.0548 150.528 23.1899 151.501 23.9751C152.47 24.7172 153.657 25.0965 154.866 25.0501C155.786 25.067 156.699 24.8882 157.548 24.525C158.453 24.1118 159.279 23.5361 159.986 22.825L163.425 25.95C162.445 27.2068 161.204 28.2232 159.791 28.925C158.263 29.6493 156.598 30.0165 154.915 30C153.413 30.0162 151.923 29.7362 150.525 29.1751C149.207 28.6767 148.009 27.8921 147.014 26.875C145.976 25.8823 145.146 24.6829 144.576 23.3501C144.018 21.9017 143.736 20.3571 143.746 18.8001C143.743 17.3132 144.008 15.8386 144.527 14.4501C145.008 13.1191 145.737 11.8965 146.673 10.8501C147.596 9.79948 148.715 8.94939 149.964 8.35009C151.298 7.73572 152.746 7.42854 154.207 7.45013C155.78 7.4081 157.342 7.74178 158.767 8.42501C160.003 9.01183 161.101 9.86448 161.986 10.925C162.852 12.0457 163.497 13.3276 163.888 14.7C164.292 16.1386 164.497 17.6281 164.497 19.1251C164.46 19.4369 164.403 19.7458 164.327 20.0501ZM157.012 13.6251C156.627 13.2027 156.157 12.8719 155.635 12.656C155.112 12.44 154.55 12.3441 153.988 12.3751C153.418 12.3468 152.85 12.4437 152.32 12.6593C151.79 12.8749 151.311 13.2042 150.915 13.6251C150.104 14.5669 149.578 15.7313 149.404 16.9751H158.426C158.337 15.7407 157.868 14.5673 157.085 13.6251H157.012Z" fill="#262626"/>
<path d="M165.717 29.5V25.175L176.641 12.8H166.131V7.79999H184.152V12.1251L173.178 24.5H184.152V29.5H165.717Z" fill="#262626"/>
<path d="M205.975 20.0501C205.975 20.2501 205.975 20.525 205.975 20.8H191.345C191.531 22.0548 192.176 23.1899 193.149 23.9751C194.118 24.7171 195.306 25.0965 196.514 25.0501C197.434 25.0641 198.347 24.8854 199.197 24.525C200.095 24.0993 200.919 23.5249 201.635 22.825L205.073 25.95C204.088 27.2015 202.848 28.2169 201.44 28.925C199.874 29.6651 198.165 30.0326 196.441 30C194.932 30.0138 193.435 29.7339 192.028 29.1751C190.715 28.6645 189.52 27.8814 188.516 26.875C187.529 25.8697 186.75 24.6709 186.224 23.3501C185.655 21.9051 185.373 20.3582 185.395 18.8001C185.384 17.3147 185.64 15.8401 186.151 14.4501C186.642 13.1239 187.37 11.9031 188.297 10.8501C189.22 9.79946 190.339 8.94936 191.589 8.35007C192.982 7.73227 194.484 7.41348 196.002 7.41348C197.52 7.41348 199.023 7.73227 200.416 8.35007C201.652 8.93689 202.749 9.78954 203.635 10.8501C204.502 11.966 205.141 13.25 205.512 14.6251C205.928 16.0611 206.133 17.5522 206.122 19.05V19.9001L205.975 20.0501ZM198.66 13.625C198.27 13.2035 197.796 12.8736 197.27 12.6578C196.744 12.442 196.178 12.3455 195.612 12.375C195.047 12.3504 194.483 12.4492 193.957 12.6646C193.432 12.8801 192.957 13.2074 192.564 13.625C191.733 14.5539 191.205 15.7247 191.052 16.9751H200.075C199.966 15.7457 199.498 14.5784 198.733 13.625H198.66Z" fill="#262626"/>
<path d="M31.3585 9.45011C30.6695 8.75806 29.8476 8.22053 28.945 7.8719C28.0425 7.52327 27.079 7.37118 26.1159 7.42512C24.7748 7.404 23.4472 7.70353 22.2387 8.30006C21.0626 8.91553 20.018 9.76546 19.1663 10.8001C18.6096 9.73999 17.7618 8.87073 16.7278 8.30006C15.6237 7.67801 14.3784 7.36748 13.119 7.40009C12.4172 7.39107 11.7183 7.49223 11.0464 7.70008H10.8024C10.8024 8.76095 10.3914 9.77831 9.6597 10.5285C8.92802 11.2786 7.93571 11.7 6.90097 11.7C5.86623 11.7 4.87377 11.2786 4.14209 10.5285C3.41042 9.77831 2.99937 8.76095 2.99937 7.70008H0.902344V20.5501H1.46314C1.91432 20.51 2.36882 20.5665 2.79756 20.716C3.2263 20.8655 3.61991 21.1048 3.95367 21.4186C4.28743 21.7325 4.55392 22.1141 4.73623 22.5391C4.91853 22.9641 5.01275 23.4232 5.01275 23.8875C5.01275 24.3518 4.91853 24.8111 4.73623 25.2361C4.55392 25.6611 4.28743 26.0427 3.95367 26.3565C3.61991 26.6704 3.2263 26.9095 2.79756 27.0591C2.36882 27.2086 1.91432 27.2651 1.46314 27.2251H0.902344V29.4751H6.87656V17.4251C6.80974 16.2413 7.15549 15.0717 7.852 14.1251C8.19077 13.7552 8.60394 13.4651 9.06289 13.2752C9.52183 13.0852 10.0155 13 10.5098 13.0251C10.9974 12.9951 11.4853 13.0785 11.9371 13.2689C12.3889 13.4594 12.793 13.7521 13.119 14.1251C13.7895 15.0818 14.109 16.2505 14.0212 17.4251V29.4751H20.0198V27.175C19.3236 26.9852 18.7082 26.565 18.2691 25.9795C17.83 25.394 17.5919 24.6761 17.5919 23.9376C17.5919 23.199 17.83 22.4811 18.2691 21.8956C18.7082 21.3101 19.3236 20.8899 20.0198 20.7001V17.4251C19.9327 16.239 20.2804 15.0621 20.9951 14.1251C21.3329 13.7538 21.7459 13.4629 22.2051 13.2729C22.6643 13.0829 23.1586 12.9983 23.6531 13.0251C24.1371 12.9953 24.6214 13.0788 25.0692 13.2694C25.517 13.46 25.9167 13.7526 26.2378 14.1251C26.917 15.0785 27.2452 16.2475 27.1644 17.4251V29.4751H33.1387V15.3501C33.3153 13.221 32.6768 11.1051 31.3585 9.45011Z" fill="#262626"/>
</svg>
