<svg width="204" height="105" viewBox="0 0 204 105" fill="none" xmlns="http://www.w3.org/2000/svg">
<path d="M79.1461 13.2637C77.5236 15.3395 75.9903 17.4724 74.5462 19.6625C73.086 21.8445 71.7231 24.0266 70.4576 26.1595C69.192 28.2925 68.1455 30.3273 67.2693 32.2151H68.5106C68.8737 32.1621 69.2426 32.1621 69.6058 32.2151C69.8735 32.2151 70.0438 32.3868 70.1168 32.5584C70.1531 32.6217 70.1722 32.6935 70.1722 32.7667C70.1722 32.8398 70.1531 32.9117 70.1168 32.9751C70.0408 33.1655 69.8938 33.3183 69.7072 33.4008C69.5207 33.4833 69.3096 33.4889 69.119 33.4164C68.7474 33.3673 68.371 33.3673 67.9994 33.4164H66.6122C66.2714 34.1029 65.8334 35.0591 65.298 36.2359C64.7626 37.4127 64.2515 38.6875 63.7647 40.183C63.2517 41.6426 62.8289 43.1328 62.4991 44.6451C62.1739 46.0596 62.0186 47.5083 62.0367 48.9601C62.0191 49.1804 62.0708 49.4007 62.1843 49.5899C62.2979 49.7791 62.4676 49.9276 62.6695 50.0143C62.8375 50.1065 63.0258 50.1549 63.2172 50.1549C63.4085 50.1549 63.5967 50.1065 63.7647 50.0143C64.0243 49.8672 64.1947 49.8672 64.2758 50.0143C64.3233 50.1137 64.3479 50.2227 64.3479 50.333C64.3479 50.4433 64.3233 50.5523 64.2758 50.6517C64.0368 50.9126 63.7671 51.1431 63.4727 51.3381C63.2385 51.4335 62.9767 51.4335 62.7426 51.3381C62.4562 51.2251 62.1985 51.0493 61.9881 50.8234C61.7467 50.5793 61.5343 50.3078 61.3553 50.0143C61.2044 49.7709 61.0895 49.5066 61.0145 49.2297C60.8536 48.0339 60.8536 46.8217 61.0145 45.6258C61.1745 44.2115 61.4348 42.8104 61.7934 41.4334C62.1584 39.9869 62.5722 38.565 63.059 37.1675C63.5457 35.7701 64.0568 34.5443 64.5435 33.5146H61.2336L56.9258 33.6371L52.472 33.8822C51.0118 33.9803 49.7706 34.1029 48.7484 34.25C46.7203 37.0122 44.5786 39.7091 42.3233 42.3405C40.0988 44.9297 37.7259 47.3855 35.2167 49.6955C32.8084 51.88 30.2282 53.8641 27.5016 55.6286C24.9696 57.3087 22.2282 58.6442 19.3486 59.6003C17.7824 60.1424 16.1371 60.4159 14.481 60.4093C13.3236 60.4178 12.1808 60.1488 11.1468 59.6248C10.3563 59.208 9.71092 58.5579 9.29712 57.7615C8.91699 57.0051 8.78092 56.148 8.90779 55.3098C9.02574 54.5288 9.25519 53.7691 9.58916 53.0543C9.93252 52.2935 10.3396 51.5635 10.806 50.8723C11.2928 50.1858 11.7795 49.5485 12.2906 48.9355C12.7468 48.4 13.2346 47.8924 13.7509 47.4155C14.0673 47.1213 14.3107 47.0231 14.5054 47.1702C14.7001 47.3174 14.6271 47.5135 14.335 47.8322C14.043 48.151 13.6048 48.7394 13.2154 49.2788C12.7898 49.8711 12.4076 50.4939 12.0716 51.1421C11.7019 51.8108 11.3845 52.5075 11.1224 53.226C10.8632 53.9292 10.6914 54.6622 10.6113 55.408C10.4602 56.2994 10.5879 57.2161 10.9764 58.0313C11.1708 58.3323 11.4244 58.5898 11.7217 58.788C12.0189 58.9862 12.3535 59.1208 12.7044 59.1835C13.6287 59.3653 14.579 59.3653 15.5032 59.1835C16.7062 58.95 17.8931 58.6388 19.0565 58.2519C21.642 57.2847 24.0953 55.9914 26.3578 54.4027C28.9299 52.6311 31.3701 50.6728 33.6591 48.5433C35.9879 46.3608 38.1977 44.0528 40.2789 41.6296C42.21 39.4034 44.0062 37.0617 45.6575 34.6177L44.4406 34.8139C43.9838 34.9064 43.5193 34.9556 43.0534 34.961C42.7092 34.9651 42.3771 34.8332 42.1285 34.5933C41.8696 34.3724 41.676 34.084 41.5688 33.7597C41.4742 33.4816 41.4742 33.1797 41.5688 32.9016C41.5688 32.632 41.8851 32.4848 42.2502 32.4358C43.0056 32.3063 43.7723 32.257 44.5379 32.2887C45.4297 32.3374 46.3234 32.3374 47.2152 32.2887C47.8301 31.5167 48.3834 30.6969 48.8701 29.837C49.4542 28.8319 49.9896 27.8021 50.5007 26.7234C51.0118 25.6446 51.4742 24.5904 51.8879 23.5362C52.2254 22.6446 52.5178 21.7362 52.7641 20.8148C53.147 19.1082 53.1966 17.3429 52.9101 15.6172C52.6866 14.2918 52.0368 13.0772 51.0605 12.1604C49.9797 11.2269 48.634 10.6608 47.2152 10.5424C45.303 10.3511 43.3723 10.5172 41.5201 11.0326C37.6787 12.0031 34.0428 13.6642 30.7873 15.9359C27.2375 18.4158 24.0153 21.3405 21.1983 24.6395C21.2546 24.9886 21.2546 25.3446 21.1983 25.6937C21.1024 25.9075 20.9884 26.1126 20.8575 26.3066C20.4915 26.7988 20.0931 27.2657 19.665 27.7041C19.2081 28.15 18.7111 28.5521 18.1804 28.9054C18.0884 28.9832 17.972 29.0259 17.8518 29.0259C17.7317 29.0259 17.6153 28.9832 17.5232 28.9054C17.2964 28.7105 17.1278 28.4557 17.0365 28.1698C16.9066 27.8509 16.8406 27.5093 16.8419 27.1647C16.8218 27.0086 16.8329 26.8501 16.8747 26.6985C16.9165 26.5469 16.9881 26.4053 17.0852 26.2821C18.4788 24.1097 20.1116 22.1029 21.9527 20.3C23.8878 18.4465 25.9717 16.7572 28.1831 15.2496C30.27 13.8027 32.4767 12.5395 34.7787 11.4739C36.7519 10.5431 38.8153 9.8202 40.936 9.31655C43.0763 8.82863 45.288 8.74541 47.4585 9.07129C49.1334 9.31154 50.7091 10.0161 52.0096 11.1062C53.2104 12.1638 54.06 13.5673 54.4434 15.127C54.9118 16.986 54.9947 18.9221 54.6868 20.8148C54.5446 21.8054 54.3165 22.7816 54.0053 23.7323C53.6402 24.7865 53.2752 25.8162 52.8615 26.8705C52.4529 27.868 51.9897 28.842 51.4742 29.788C50.9875 30.7196 50.5007 31.5287 50.0626 32.2396C50.8901 32.2396 51.961 32.2396 53.2752 32.2396H65.0789C65.7603 30.7441 66.6122 29.1015 67.5126 27.3363C68.4131 25.5711 69.5571 23.8304 70.6523 22.1142C71.7475 20.398 72.794 18.7554 73.8161 17.2109C74.8383 15.6663 75.7388 14.416 76.4932 13.4353C76.6879 13.1902 76.7367 13.0185 76.615 12.8714C76.4933 12.7243 76.2986 12.7243 75.9822 12.8714C75.9071 12.8999 75.8244 12.9008 75.7487 12.8739C75.673 12.847 75.6091 12.7939 75.5684 12.7243C75.5684 12.7243 75.5684 12.4546 75.5684 12.3075C76.0308 11.7681 76.542 11.1798 77.1504 10.5424C77.7588 9.90495 78.3429 9.29201 78.9513 8.67909C79.5598 8.06617 80.1196 7.47774 80.6794 6.96289C81.2391 6.44803 81.7016 5.93312 82.091 5.51633C82.1591 5.42368 82.2574 5.35813 82.3686 5.33123C82.4799 5.30433 82.597 5.3178 82.6994 5.36924C82.9459 5.47989 83.1627 5.64798 83.3321 5.8596C83.5348 6.10325 83.6842 6.38739 83.7703 6.69324C83.8393 6.96674 83.8393 7.25322 83.7703 7.52672C82.31 9.24289 80.728 11.1798 79.1461 13.2637Z" fill="#262626"/>
<path d="M66.4176 50.6762C65.4441 50.6762 64.9816 49.9898 64.9816 48.6659C64.9816 45.92 67.0908 42.4304 71.3093 38.1972C72.9985 36.4499 74.8392 34.8581 76.8096 33.4409C78.327 32.3549 79.9596 31.4422 81.6772 30.7196L82.7724 30.4009C83.1788 30.3023 83.5956 30.2529 84.0136 30.2538C84.4717 30.2555 84.9284 30.3048 85.3765 30.4009C85.8374 30.4974 86.2924 30.6203 86.7394 30.7687C87.1023 30.8261 87.4718 30.8261 87.8346 30.7687C88.4052 30.7259 88.9372 30.4622 89.3192 30.033C89.4291 29.9917 89.5501 29.9917 89.66 30.033C89.7456 30.0408 89.8274 30.0725 89.8962 30.1245C89.9649 30.1764 90.018 30.2466 90.0493 30.3272C90.0493 30.5234 90.2197 30.646 90.0493 30.7196C88.9541 32.4603 87.859 34.152 86.7638 35.8191C85.6686 37.4862 84.6221 39.1778 83.5999 40.9185C82.6853 42.3972 81.8722 43.9372 81.1662 45.5276C80.4117 47.2683 79.7058 49.0336 79.073 50.8233C78.4402 52.6131 77.9049 54.3046 77.4424 55.9227C77.0544 57.2581 76.7536 58.6176 76.542 59.9926C76.5216 60.1636 76.5216 60.3363 76.542 60.5073V61.0959C76.5035 61.6406 76.5938 62.1868 76.8053 62.6897C77.0169 63.1925 77.3436 63.6377 77.7588 63.9888C78.6976 64.6709 79.84 65.0083 80.9958 64.9449C82.3795 64.9505 83.7539 64.7184 85.0601 64.2585C87.9309 63.0572 90.5928 61.4019 92.9455 59.3551C94.4302 58.1566 95.8291 56.8539 97.1316 55.4569C98.3728 54.1085 99.5653 52.8336 100.368 51.6568C100.709 51.2646 100.928 51.0685 101.05 51.0685C101.064 51.1247 101.064 51.1838 101.05 51.2401C101.03 51.4674 100.954 51.6863 100.831 51.8775C99.8489 53.3134 98.7928 54.6964 97.667 56.0209C96.306 57.5899 94.825 59.049 93.2375 60.3848C91.615 61.6923 90.1792 62.7711 88.9299 63.621C87.8237 64.3618 86.6403 64.9784 85.4009 65.4598C84.8865 65.6444 84.3571 65.7838 83.8189 65.8765C83.2484 65.9772 82.6702 66.0264 82.091 66.0236C81.2625 66.0207 80.4402 65.8799 79.6572 65.6069C78.9373 65.3268 78.2513 64.9648 77.6128 64.5281C76.902 64.1351 76.3636 63.4877 76.1039 62.7139C75.8046 61.8567 75.6723 60.9492 75.7144 60.0415C75.796 58.9601 75.9588 57.8865 76.2012 56.8298C76.4933 55.4814 76.8584 54.0594 77.3208 52.5394C77.7832 51.0194 78.2699 49.5239 78.8053 48.0284C79.3408 46.5329 79.8763 45.209 80.4117 44.0567C80.9471 42.9044 81.6772 41.3844 82.31 40.2076C82.9427 39.0307 83.5755 37.9274 84.2326 36.9222C84.5003 36.5055 84.476 36.2849 84.2326 36.2849H84.0623C83.0494 37.5214 81.9601 38.6923 80.801 39.7908C79.5112 41.0166 78.0509 42.2424 76.3716 43.8114C73.6721 46.1704 70.7913 48.3102 67.7561 50.2104C67.356 50.4768 66.8956 50.637 66.4176 50.6762ZM68.4131 46.6309C68.4131 47.5626 68.754 48.0284 69.4354 48.0284C69.7419 48.017 70.0382 47.9146 70.2872 47.7342C72.7121 46.1554 74.971 44.3317 77.0287 42.2914C79.7089 39.6631 82.2438 36.8886 84.6221 33.9804C84.6781 33.9322 84.7225 33.8719 84.752 33.8039C84.7816 33.736 84.7954 33.6621 84.7924 33.588C84.7716 33.3447 84.6919 33.1102 84.5604 32.9051C84.4289 32.6999 84.2496 32.5304 84.038 32.4112C83.4889 32.0293 82.8304 31.8397 82.1639 31.8718C81.7204 31.8716 81.2786 31.9293 80.8498 32.0434C78.17 33.1525 75.8278 34.9537 74.0595 37.2655C72.8807 38.5944 71.7835 39.9945 70.774 41.4579C69.9482 42.6745 69.2315 43.9626 68.6322 45.3071C68.4887 45.7336 68.4147 46.1806 68.4131 46.6309Z" fill="#262626"/>
<path d="M82.9672 49.3523C82.8211 49.1807 82.8455 48.8864 82.9672 48.4206C84.2715 45.7736 85.7513 43.2181 87.3966 40.7714C88.3945 39.2514 89.3192 37.8785 90.1954 36.6526C91.0715 35.4268 91.899 34.3971 92.6291 33.4655C92.7539 33.2748 92.9205 33.1154 93.1159 32.9997C93.4206 32.8724 93.7393 32.7819 94.0651 32.73C94.2841 32.73 94.4301 32.73 94.4544 32.73C94.4556 32.8039 94.4411 32.8771 94.4117 32.9447C94.3823 33.0124 94.3387 33.073 94.2841 33.1222C92.9298 34.6663 91.6856 36.3048 90.5605 38.0256C89.539 39.6616 88.6283 41.3654 87.8347 43.1251C87.6803 43.3471 87.6032 43.6143 87.6156 43.8851C87.6156 44.3019 87.7616 44.498 88.078 44.498C88.2128 44.4854 88.3434 44.4439 88.461 44.3762C88.5785 44.3086 88.6803 44.2162 88.7595 44.1057C89.8304 43.076 90.9256 42.0464 92.0938 41.0167L95.6713 38.001C97.4305 36.4372 99.3665 35.0877 101.439 33.9804C101.847 33.5889 102.327 33.2807 102.851 33.0731C103.147 32.8914 103.478 32.7756 103.822 32.7333C104.167 32.691 104.516 32.7233 104.847 32.828C105.382 33.0242 105.358 33.4654 104.847 34.1519C101.986 37.9031 99.5383 41.9558 97.5454 46.2388C95.7955 49.6143 94.6503 53.2743 94.1624 57.0506C94.0463 57.7684 94.084 58.5028 94.2729 59.2048C94.4618 59.9067 94.7975 60.5598 95.2576 61.1203C95.6612 61.545 96.1499 61.8784 96.6912 62.0982C97.2325 62.318 97.814 62.4193 98.3971 62.3952C98.9585 62.407 99.5178 62.3242 100.052 62.1501C103.084 61.0225 105.857 59.2877 108.205 57.0506C111.832 53.9369 113.632 51.4362 113.632 49.6955C113.649 49.5473 113.635 49.3973 113.594 49.2543C113.552 49.1112 113.482 48.9777 113.389 48.8619C113.222 48.6924 113.011 48.5735 112.781 48.5188C112.571 48.4849 112.358 48.4849 112.148 48.5188C112.002 48.5188 111.929 48.5188 111.929 48.3472C111.929 48.1755 112.075 47.9303 112.416 47.7832C112.683 47.6293 112.984 47.5451 113.292 47.5381C113.949 47.5381 114.265 47.9793 114.265 48.8619C114.233 49.4313 114.118 49.993 113.925 50.5292C113.511 51.7908 112.894 52.9752 112.099 54.0351C111.099 55.4045 109.992 56.6917 108.789 57.8842C105.666 61.2701 101.464 63.4471 96.9126 64.0378C96.2306 64.1395 95.5345 64.0795 94.8796 63.8624C94.2247 63.6453 93.6291 63.2773 93.1403 62.7876C92.5583 62.0266 92.1408 61.1515 91.9145 60.2184C91.6881 59.2853 91.6581 58.3148 91.8261 57.3693C92.3557 53.7041 93.5784 50.1753 95.428 46.9742C96.3042 45.209 97.229 43.5173 98.2025 41.8747C99.176 40.2321 100.198 38.663 101.293 37.143C101.423 36.975 101.492 36.7674 101.488 36.5546C101.488 35.9417 101.123 35.6475 100.442 35.6475C100.123 35.6567 99.8127 35.7497 99.5411 35.9172C97.2496 37.5549 95.0853 39.3663 93.0672 41.3354C90.7497 43.5732 88.5483 45.9298 86.4718 48.3961C85.6525 49.1149 84.6321 49.5603 83.5512 49.671C83.2349 49.6465 82.9915 49.5729 82.9672 49.3523Z" fill="#262626"/>
<path d="M122.637 34.5687C122.96 34.6485 123.25 34.8286 123.465 35.0834C123.584 35.1926 123.68 35.3249 123.747 35.4724C123.814 35.6198 123.85 35.7795 123.854 35.9416C123.762 36.4457 123.544 36.918 123.221 37.3146L121.031 44.0076C120.155 46.6064 119.157 49.6219 117.965 53.0788C123.41 52.0833 128.931 51.5665 134.465 51.5342C135.406 51.5342 136.218 51.5342 136.899 51.5342C137.605 51.5342 138.213 51.6569 138.749 51.7549C139.207 51.8442 139.644 52.0187 140.039 52.2697C140.485 52.5415 140.887 52.8806 141.231 53.275C141.582 53.6611 141.885 54.0891 142.132 54.5497C142.35 55.0005 142.467 55.4946 142.473 55.9963C142.477 56.4385 142.377 56.8755 142.181 57.2712C141.185 58.7601 139.922 60.0488 138.457 61.0713C138.233 61.3139 137.931 61.47 137.605 61.5126C137.605 61.5126 137.775 61.0222 138.165 60.7525C139.072 60.0766 139.835 59.2255 140.412 58.249C140.989 57.2724 141.367 56.1899 141.523 55.0646C141.523 53.6917 140.599 52.9317 138.749 52.7601H134.441C130.985 52.7601 127.846 52.7601 125.047 53.0788C122.526 53.2431 120.02 53.5954 117.551 54.133C106.307 86.3643 92.694 103.003 76.7123 104.049C71.2555 104.395 65.8714 102.643 61.6474 99.1457C57.0475 95.4927 54.7354 91.4229 54.7354 86.8873C54.7546 85.4012 55.0691 83.934 55.6603 82.5724C58.5645 75.7077 67.683 69.2353 83.0157 63.1551C93.6043 58.9136 104.575 55.7117 115.774 53.5937C117.002 50.5416 118.034 47.4134 118.865 44.2283C119.035 43.5663 119.206 42.978 119.352 42.4141C119.498 41.8502 119.62 41.3597 119.766 40.8939C118.908 41.6815 118.006 42.4183 117.064 43.1005L112.902 46.067C110.712 47.6116 108.838 48.8619 107.232 49.8426C105.928 50.6556 104.579 51.3924 103.192 52.0491C102.84 52.1734 102.469 52.2316 102.096 52.2208C101.817 52.2577 101.533 52.2289 101.267 52.1368C101 52.0448 100.759 51.8918 100.561 51.69C100.363 51.4882 100.214 51.243 100.126 50.9735C100.037 50.7041 100.012 50.4176 100.052 50.1368C100.078 49.5154 100.254 48.9098 100.563 48.3716C102.718 44.2867 105.963 40.89 109.933 38.5649C113.621 36.0197 117.951 34.5828 122.418 34.4216C122.505 34.4468 122.581 34.4982 122.637 34.5687ZM56.3661 87.6473C56.44 89.7922 57.0219 91.8883 58.0634 93.7605C59.1049 95.6328 60.5756 97.227 62.3531 98.4102C66.4211 101.599 71.4913 103.209 76.6393 102.946C85.8389 102.603 94.5924 95.6643 102.9 82.1311C105.477 77.8815 107.809 73.4857 109.885 68.9656C112.067 64.1788 113.969 59.267 115.579 54.2556C103.174 56.7484 91.0722 60.5873 79.4869 65.705C67.0585 71.54 59.5786 77.62 57.0475 83.9453C56.6125 85.1296 56.398 86.3846 56.4147 87.6473H56.3661ZM120.423 37.3146C120.423 37.3146 120.423 37.1183 120.423 37.0693C120.423 36.3828 120.277 36.0151 120.033 35.9906C119.148 35.8669 118.247 35.9595 117.405 36.2603C114.378 37.034 111.55 38.4462 109.106 40.4037C106.64 42.1748 104.724 44.6148 103.581 47.44C103.581 47.6116 103.581 47.7832 103.581 47.8813C103.581 47.9793 103.581 48.151 103.581 48.3471C103.581 49.5729 104.043 50.1858 104.968 50.1858C107.527 49.2053 109.898 47.7869 111.978 45.9934C113.6 44.882 114.963 43.8769 116.066 42.9779C117.21 42.0708 118.184 41.2863 118.938 40.5262C119.413 40.1384 119.798 39.6491 120.063 39.0938C120.328 38.5384 120.467 37.9308 120.471 37.3146H120.423Z" fill="#262626"/>
<path d="M124.755 51.853C124.453 51.7612 124.172 51.6113 123.927 51.4117C123.68 51.2197 123.466 50.9876 123.295 50.7251C123.127 50.4703 123.034 50.1729 123.027 49.8671C123.027 46.6799 125.655 41.9727 130.693 35.77C130.839 35.5003 130.693 35.3286 130.693 35.2551L129.671 34.5932C129.33 34.3481 129.16 34.1028 129.16 33.8822C129.173 33.7139 129.232 33.5526 129.33 33.4163C129.33 33.2202 129.939 33.0976 130.815 33.0731H132.981C133.206 33.049 133.422 32.9736 133.614 32.8525C134.246 32.1497 135.112 31.7048 136.047 31.6021C136.941 31.697 137.788 32.0551 138.481 32.6318H138.7L138.895 32.7545H146.318C146.878 32.7545 147.17 32.926 147.17 32.9996C147.17 33.0731 146.878 33.3429 146.318 33.3429C145.125 33.3429 144.371 33.5634 144.03 34.0292C143.994 34.0793 143.975 34.1393 143.975 34.2009C143.975 34.2625 143.994 34.3225 144.03 34.3725C144.03 34.3725 144.03 34.6177 144.03 34.7158C144.038 34.8137 144.038 34.9121 144.03 35.01C143.819 36.704 143.183 38.3158 142.181 39.6926C140.722 41.7256 139.004 43.5557 137.07 45.1354C133.837 48.3573 129.787 50.6218 125.363 51.6813C125.173 51.7757 124.966 51.8339 124.755 51.853ZM124.463 50.1368C124.463 51.0684 125.071 51.4116 126.288 51.191C129.85 50.2095 133.075 48.2586 135.609 45.5521C138.697 43.205 140.985 39.9496 142.156 36.2358C142.424 35.0835 141.694 34.4216 139.99 34.2254C139.182 34.1259 138.365 34.1259 137.556 34.2254C136.788 34.2976 136.035 34.4791 135.317 34.7647C135.317 34.7647 134.928 34.8874 134.344 35.2796C130.269 39.0896 127.057 43.7387 124.925 48.9109C124.672 49.2745 124.513 49.6958 124.463 50.1368Z" fill="#262626"/>
<path d="M164.255 36.8242C163.598 37.9765 162.989 39.2759 162.405 40.3792C161.821 41.4824 161.286 42.8308 160.823 43.9096C160.447 44.8354 160.162 45.7961 159.971 46.778C159.861 47.2702 159.861 47.7812 159.971 48.2735C159.971 48.5922 160.215 48.7639 160.409 48.8129C160.639 48.8862 160.886 48.8862 161.115 48.8129L161.943 48.5922C162.275 48.4931 162.601 48.3703 162.916 48.2245C163.227 48.0825 163.528 47.9186 163.817 47.7342C164.425 47.2929 164.766 47.2438 164.814 47.5871C164.863 47.9303 164.668 48.2734 164.23 48.7147C163.808 49.1625 163.334 49.5576 162.819 49.8917C162.326 50.2164 161.804 50.4953 161.261 50.7251C160.986 50.8264 160.684 50.8264 160.409 50.7251C160.05 50.574 159.727 50.3485 159.46 50.0633C159.169 49.7699 158.915 49.4403 158.706 49.0826C158.511 48.7379 158.403 48.3509 158.389 47.9547C158.4 47.1793 158.49 46.4071 158.657 45.6502C158.827 44.8204 159.047 44.0017 159.314 43.1985C159.582 42.4385 159.874 41.6785 160.19 40.943C160.507 40.2075 160.823 39.4965 161.091 38.8346C161.2 38.618 161.257 38.3786 161.257 38.1358C161.257 37.893 161.2 37.6536 161.091 37.4371C160.847 37.0694 160.409 37.2165 159.704 37.9275C158.998 38.6385 157.611 39.9868 156.15 41.3843C154.69 42.7817 153.205 44.1792 151.721 45.5276C150.236 46.876 148.849 48.102 147.583 49.1562C146.753 49.9328 145.799 50.5626 144.76 51.0193C144.352 51.1918 143.903 51.2374 143.469 51.15C143.035 51.0626 142.637 50.8463 142.327 50.5291C142.005 50.2146 141.759 49.8302 141.607 49.4053C141.455 48.9805 141.401 48.5263 141.45 48.0774C141.573 47.0305 141.818 46.0018 142.181 45.0128C142.598 43.7968 143.11 42.6163 143.714 41.4824C144.346 40.2811 145.028 39.0308 145.782 37.8049C146.537 36.5791 147.267 35.3532 148.021 34.2745C148.776 33.1958 149.506 32.1414 150.163 31.2588C150.82 30.3762 151.405 29.6163 151.916 29.0279C152.112 28.7911 152.375 28.6201 152.67 28.5375C152.939 28.4527 153.228 28.4527 153.497 28.5375C153.606 28.5699 153.703 28.6336 153.777 28.7207C153.85 28.8078 153.897 28.9145 153.911 29.0279C153.882 29.4296 153.719 29.8097 153.449 30.1066C152.573 31.1609 151.648 32.4113 150.674 33.8332C149.701 35.2552 148.776 36.677 147.9 38.148C147.024 39.619 146.245 41.0166 145.466 42.3895C144.855 43.5444 144.366 44.7605 144.006 46.018C143.568 47.587 143.568 48.4696 144.006 49.0335C144.444 49.5974 145.198 49.4258 146.147 48.9109C147.822 47.8318 149.402 46.6097 150.869 45.258C152.524 43.7379 154.155 42.1443 155.736 40.5017C157.318 38.8591 158.9 37.241 160.385 35.5984C161.87 33.9557 163.184 32.7298 164.328 31.7001C164.668 31.3324 164.96 31.2344 165.228 31.3325C165.512 31.4681 165.737 31.7035 165.861 31.9945C166.01 32.3278 166.1 32.6844 166.129 33.0487C166.143 33.3341 166.093 33.619 165.983 33.8822C165.496 34.6912 164.912 35.6474 164.255 36.8242Z" fill="#262626"/>
<path d="M162.21 79.4834C161.213 78.4405 160.537 77.1291 160.263 75.7077C159.982 74.2044 159.843 72.6775 159.85 71.1476C159.85 65.7213 162.04 57.974 166.421 47.9058C168.368 43.4683 170.315 39.4475 172.238 35.8925C174.02 32.5907 175.97 29.383 178.079 26.282C178.519 25.8214 178.764 25.2055 178.76 24.5658C178.76 24.2262 178.663 23.8938 178.482 23.6072C178.301 23.3207 178.043 23.092 177.738 22.9478C176.351 22.4084 175.815 21.8199 176.131 21.158C176.245 20.9291 176.805 20.7576 177.811 20.6432C179.226 20.5071 180.648 20.4498 182.07 20.4716C182.216 20.4716 182.24 20.4715 182.07 20.2999C182.03 20.2516 182.009 20.1909 182.009 20.1283C182.009 20.0657 182.03 20.005 182.07 19.9567C183.996 16.9562 186.11 14.0819 188.398 11.3513C190.815 8.50732 193.33 5.54898 195.942 2.47621C196.929 1.8275 198.003 1.32396 199.131 0.980729C200.055 0.662012 200.712 0.441415 201.102 0.269798C201.51 0.0937455 201.948 0.00192085 202.392 0C202.806 0 203.025 0.171671 203.025 0.514905C203.025 0.85814 202.83 0.809064 202.44 0.931648C198.871 1.63446 192.957 7.70642 184.698 19.1476C184.09 20.0302 184.212 20.4716 185.088 20.4716H200.907C201.151 20.4459 201.395 20.516 201.589 20.6676C201.523 20.883 201.416 21.0832 201.272 21.2561C201.189 21.4076 201.07 21.536 200.926 21.6301C200.781 21.7241 200.616 21.7809 200.445 21.7954L192.997 22.1878L183.433 22.7271C183.146 22.7662 182.872 22.8676 182.628 23.0242C182.384 23.1809 182.177 23.389 182.021 23.6342C180.001 26.6252 178.079 29.6163 176.302 32.5583C174.525 35.5003 172.773 38.712 171.045 42.1688C168.677 47.0174 166.597 52.0031 164.815 57.0996C163.424 60.9856 162.508 65.028 162.089 69.1372C162.066 69.5946 162.066 70.0528 162.089 70.5102V71.9076C162.089 78.5762 164.425 81.9105 169.098 81.9105C170.611 81.8734 172.111 81.6175 173.552 81.1505C176.101 80.3199 178.506 79.0957 180.683 77.5219C183.343 75.6572 185.792 73.5032 187.984 71.0985C190.177 68.8687 192.12 66.4022 193.776 63.7435C194.986 61.7339 195.812 59.5136 196.21 57.1976C196.21 53.5936 194.92 52 192.389 52.4168C191.861 52.4714 191.354 52.6476 190.904 52.9317C190.634 53.144 190.317 53.287 189.98 53.3484C189.615 53.3484 189.444 53.1524 189.517 52.8091C189.737 52.4938 190.019 52.2269 190.345 52.0246C190.998 51.6419 191.682 51.3139 192.389 51.0439C192.615 51.0096 192.845 51.0096 193.071 51.0439C193.806 51.1326 194.509 51.4027 195.116 51.8304C195.723 52.258 196.216 52.83 196.551 53.4955C197.457 54.6157 198.016 55.9802 198.157 57.4183C197.378 62.4688 193.744 67.9686 187.254 73.918C184.438 76.5506 181.316 78.8309 177.957 80.7092C175.473 82.1316 172.683 82.9226 169.828 83.0138C168.375 83.0523 166.932 82.754 165.611 82.1418C164.29 81.5297 163.127 80.6202 162.21 79.4834Z" fill="#262626"/>
<path d="M3.6508 32.4112C3.22952 32.38 2.80663 32.38 2.38534 32.4112C2.13518 32.4336 1.88928 32.4914 1.6551 32.5828C1.37774 32.7128 1.14799 32.9272 0.998083 33.1958C0.850617 33.4443 0.751512 33.7188 0.706044 34.0047V34.5196H0.0732422C0.0732422 34.5196 0.0732422 34.3235 0.0732422 34.2009C0.0732422 34.0783 0.0732422 33.9067 0.0732422 33.7841V32.1416C0.0840709 31.9783 0.0840709 31.8145 0.0732422 31.6512L0.316559 31.4796H10.9764C10.9764 31.6512 10.9764 31.8719 10.9764 32.1416C10.9764 32.4112 10.9764 32.6808 10.9764 32.975V33.7841C10.9764 34.0293 10.9764 34.2254 10.9764 34.348H10.6844V33.7841C10.6934 33.6699 10.6934 33.5551 10.6844 33.4409C10.6616 33.3018 10.612 33.1686 10.5384 33.0487C10.4831 32.9212 10.4179 32.7981 10.3436 32.6809C10.246 32.5722 10.1307 32.4811 10.0029 32.4112C9.75237 32.3181 9.49042 32.2603 9.22421 32.2396C8.76227 32.2097 8.29888 32.2097 7.83695 32.2396H6.5957V41.3597C6.60892 41.5556 6.60892 41.7523 6.5957 41.9483C6.5665 42.1104 6.5665 42.2764 6.5957 42.4385C6.61946 42.5525 6.67924 42.6557 6.76608 42.7327C6.84082 42.8047 6.93317 42.8555 7.03376 42.8798H8.39666V43.3701H2.9207V42.8798H4.33232L4.55128 42.7327L4.6973 42.4385C4.71461 42.2755 4.71461 42.1112 4.6973 41.9483C4.6973 41.9483 4.6973 41.654 4.6973 41.4579V40.7468C4.6973 40.4526 4.6973 40.134 4.6973 39.7662V32.4112H3.6508Z" fill="#262626"/>
<path d="M12.5584 32.1905L12.4124 31.7247L12.8505 31.553L13.5562 31.2588C13.8248 31.1566 14.0852 31.0337 14.335 30.8912L15.0408 30.5234L15.3086 30.6705V31.9454C15.3086 32.3867 15.3086 32.828 15.3086 33.3183C15.3086 33.8086 15.3086 34.299 15.3086 34.8383C15.3086 35.3777 15.3086 35.9906 15.3086 36.6771L15.7952 36.432L16.3307 36.2113C16.6478 36.0832 16.973 35.9767 17.3042 35.8925C17.6364 35.7956 17.9806 35.7461 18.3264 35.7454C18.5932 35.7124 18.8628 35.7124 19.1295 35.7454C19.4245 35.8304 19.704 35.9628 19.957 36.1376C20.2224 36.3592 20.4382 36.635 20.5898 36.9467C20.7702 37.3722 20.8533 37.833 20.8331 38.2951V40.3791C20.8331 40.6243 20.8331 40.8449 20.8331 41.0655V41.7275C20.8433 41.8663 20.8433 42.0055 20.8331 42.1443C20.8171 42.2909 20.8171 42.4389 20.8331 42.5856C20.8047 42.6815 20.8047 42.7838 20.8331 42.8798C20.9051 42.8974 20.9803 42.8974 21.0522 42.8798H21.8067V43.3701H17.9857V42.8798H18.7889C18.8677 42.8529 18.9358 42.8014 18.9835 42.7327C18.9981 42.6351 18.9981 42.536 18.9835 42.4385C18.9835 42.4385 18.9835 42.1444 18.9835 41.9237V41.7275C18.9835 41.5804 18.9835 41.4088 18.9835 41.2126V40.6733C18.9936 40.5346 18.9936 40.3953 18.9835 40.2566V38.3933C18.9917 38.1401 18.9418 37.8884 18.8374 37.6578C18.7408 37.4631 18.5989 37.2949 18.4237 37.1675C18.3 37.0267 18.1515 36.9103 17.9857 36.8242C17.7032 36.7839 17.4165 36.7839 17.1339 36.8242H16.5741L16.0143 36.9467L15.5519 37.1184L15.2599 37.2409V41.7275C15.2703 41.8581 15.2703 41.9892 15.2599 42.1197C15.2436 42.2828 15.2436 42.4471 15.2599 42.6101C15.2328 42.7063 15.2328 42.8081 15.2599 42.9043C15.3075 42.973 15.3758 43.0246 15.4546 43.0514H16.2091V43.5418H12.461V43.0514H12.8018C12.897 43.08 12.9985 43.08 13.0938 43.0514C13.1665 43.025 13.2271 42.9726 13.2642 42.9043C13.2815 42.807 13.2815 42.7074 13.2642 42.6101C13.2789 42.4552 13.2789 42.2992 13.2642 42.1443C13.2642 42.1443 13.2642 41.8991 13.2642 41.703C13.2529 41.4825 13.2529 41.2615 13.2642 41.041V34.5932C13.2642 34.25 13.2642 33.9312 13.2642 33.637C13.2642 33.3428 13.2642 33.0731 13.2642 32.8279C13.2642 32.5828 13.2642 32.2641 13.2642 31.9208L12.5584 32.1905Z" fill="#262626"/>
<path d="M28.8888 39.2758H24.9705C24.9705 39.2758 24.9705 39.3984 24.9705 39.472V39.668C24.9711 40.0245 25.0202 40.3794 25.1165 40.7224C25.1887 41.0779 25.3383 41.4128 25.5546 41.703C25.7558 42.0068 26.0328 42.252 26.3578 42.414C26.7405 42.613 27.1689 42.706 27.599 42.6837C27.9473 42.6905 28.2939 42.6323 28.6212 42.5121C28.9076 42.4053 29.1845 42.274 29.4487 42.1197L30.1544 41.7275L30.4708 42.2179L29.7893 42.6837L29.1567 43.0513C28.9227 43.185 28.6784 43.2998 28.4264 43.3946C28.1595 43.5101 27.8825 43.6003 27.599 43.6643C27.2912 43.6884 26.982 43.6884 26.6742 43.6643C26.2565 43.6636 25.8431 43.5804 25.4573 43.4192C25.0542 43.2615 24.6892 43.0192 24.3864 42.7082C24.0479 42.3657 23.7828 41.9567 23.6076 41.5068C23.3911 40.9698 23.2835 40.3946 23.2912 39.8151C23.2908 39.1972 23.4237 38.5866 23.6807 38.0254C23.914 37.5028 24.2637 37.0414 24.7028 36.6771C25.1246 36.2968 25.6225 36.0125 26.163 35.8434C26.7344 35.6446 27.3353 35.5451 27.9398 35.5492C28.2898 35.5365 28.6383 35.6 28.9618 35.7354C29.2852 35.8708 29.5757 36.0749 29.8137 36.3338C30.0635 36.6056 30.2615 36.9214 30.3978 37.2654C30.547 37.6479 30.6214 38.0558 30.6169 38.4667L28.8888 39.2758ZM27.161 36.5545C26.9504 36.5622 26.7436 36.6122 26.5525 36.7016C26.3299 36.8087 26.1248 36.9491 25.9441 37.1183C25.7372 37.3078 25.5643 37.5318 25.4329 37.7803C25.2664 38.042 25.1507 38.3332 25.0922 38.6384H28.6699C28.6555 38.3454 28.5981 38.0563 28.4995 37.7803C28.4362 37.5369 28.3198 37.3107 28.1587 37.1183C28.0293 36.9538 27.8729 36.8129 27.6963 36.7016C27.5401 36.5821 27.3555 36.5059 27.161 36.4809V36.5545Z" fill="#262626"/>
</svg>
