<svg width="106" height="139" viewBox="0 0 106 139" fill="none" xmlns="http://www.w3.org/2000/svg">
<path d="M105.941 106.403H96.3852L69.0494 76.8844L78.2501 69.1039L96.3852 89.5352L96.4147 47.0394L27.6908 106.403H9.82194L106 24.0245L105.941 106.403Z" fill="#262626"/>
<path d="M0 106.403V0L53.0148 45.4358L106 0V15.5016L53.0148 60.9671L10.029 24.1136V82.4971L34.5839 61.6204L43.1041 69.5197L0 106.403Z" fill="#262626"/>
<path d="M14.9697 121.459L18.4902 117.331H20.8865V128.408H18.135V121.489L15.1766 124.963H14.7033L11.7449 121.489V128.408H8.9936V117.331H11.3899L14.9697 121.459Z" fill="#262626"/>
<path d="M26.182 117.331V128.408H23.5786V117.331H26.182Z" fill="#262626"/>
<path d="M38.9919 125.023V127.458C37.6509 128.168 36.1593 128.545 34.6429 128.557C32.9314 128.651 31.2516 128.064 29.9686 126.923C29.4124 126.416 28.9695 125.797 28.6687 125.106C28.3679 124.415 28.216 123.668 28.2232 122.914C28.215 122.147 28.375 121.388 28.692 120.69C29.009 119.992 29.4752 119.372 30.0574 118.875C31.3895 117.712 33.1156 117.106 34.8797 117.183C36.2749 117.14 37.6554 117.478 38.8735 118.163V120.627C37.7165 119.934 36.4037 119.546 35.0572 119.499C33.9881 119.439 32.9347 119.778 32.0988 120.449C31.7382 120.735 31.4488 121.101 31.2537 121.519C31.0586 121.936 30.963 122.394 30.9745 122.855C30.9679 123.316 31.0625 123.774 31.2517 124.195C31.4409 124.615 31.72 124.989 32.0691 125.29C32.8936 125.983 33.9556 126.324 35.0276 126.24C35.5769 126.247 36.1245 126.177 36.6547 126.032C37.4634 125.77 38.246 125.432 38.9919 125.023Z" fill="#262626"/>
<path d="M52.1864 117.331V128.408H49.4351V123.924H43.9325V128.408H41.3291V117.331H44.0804V121.786H49.583V117.331H52.1864Z" fill="#262626"/>
<path d="M57.4821 117.331V128.408H54.7308V117.331H57.4821Z" fill="#262626"/>
<path d="M70.5582 118.103V120.538C69.2737 119.882 67.8575 119.526 66.4163 119.499C65.3427 119.442 64.2869 119.792 63.4579 120.479C63.1126 120.799 62.841 121.19 62.6622 121.626C62.4833 122.062 62.4016 122.532 62.4226 123.003C62.4094 123.447 62.4956 123.888 62.6748 124.294C62.854 124.7 63.1216 125.061 63.4579 125.349C64.2478 125.973 65.2352 126.289 66.2388 126.24C66.8608 126.241 67.4759 126.109 68.0436 125.854V124.577H66.446V122.528H70.9132V127.072C70.3397 127.571 69.6626 127.936 68.9311 128.141C68.0685 128.409 67.1714 128.549 66.2685 128.557C64.548 128.624 62.8632 128.053 61.5351 126.953C60.9457 126.456 60.475 125.832 60.1575 125.128C59.8401 124.424 59.684 123.657 59.7009 122.884C59.6838 122.107 59.8395 121.336 60.1568 120.627C60.4741 119.918 60.945 119.289 61.5351 118.786C62.8918 117.676 64.6083 117.105 66.3573 117.183C67.8062 117.193 69.2369 117.506 70.5582 118.103Z" fill="#262626"/>
<path d="M79.6109 117.331L84.5218 128.408H81.5634L80.6463 126.21H75.7058L74.8775 128.408H71.9191L76.3862 117.331H79.6109ZM79.8477 124.28L78.0725 119.974L76.4454 124.28H79.8477Z" fill="#262626"/>
<path d="M96.9472 117.331V128.408H94.5805L88.6637 121.311V128.408H85.7053V117.331H88.2198L94.1367 124.102V117.331H96.9472Z" fill="#262626"/>
<path d="M18.9042 132.179H19.4663L22.0401 138.119H21.2119L20.4427 136.396H17.9871L17.2771 138.119H16.4193L18.9042 132.179ZM20.0877 135.535L19.1706 133.456L18.3125 135.535H20.0877Z" fill="#262626"/>
<path d="M34.0809 132.179H34.8797L32.4538 138.119H32.2763L29.7912 132.179H30.6196L32.365 136.248L34.0809 132.179Z" fill="#262626"/>
<path d="M43.9621 132.179H47.2459V132.922H44.7903V134.674H47.157V135.416H44.7903V137.198H47.2459V137.941H43.9325L43.9621 132.179Z" fill="#262626"/>
<path d="M61.1505 132.179H62.0379V138.119H61.328L57.4821 133.664V138.119H56.7128V132.179H57.3636L61.2391 136.664L61.1505 132.179Z" fill="#262626"/>
<path d="M75.5875 132.179H76.4158V135.446C76.4566 135.781 76.4566 136.12 76.4158 136.456C76.3659 136.655 76.2862 136.845 76.1792 137.02C76.086 137.178 75.9657 137.319 75.8241 137.436C75.3248 137.845 74.6932 138.056 74.0491 138.03C73.3956 138.058 72.7542 137.847 72.2445 137.436C72.1029 137.319 71.9827 137.178 71.8895 137.02C71.7875 136.853 71.7079 136.673 71.6528 136.486C71.6124 136.14 71.6124 135.791 71.6528 135.446V132.179H72.4812V135.446C72.4543 135.84 72.5149 136.236 72.6587 136.604C72.8098 136.809 73.0011 136.981 73.2208 137.109C73.5105 137.233 73.8231 137.294 74.1379 137.287C74.5666 137.312 74.9887 137.174 75.3212 136.901C75.4714 136.77 75.5924 136.608 75.6762 136.426C75.7208 136.101 75.7208 135.771 75.6762 135.446L75.5875 132.179Z" fill="#262626"/>
<path d="M86.001 132.179H89.2554V132.922H86.8295V134.674H89.1666V135.416H86.8295V137.198H89.3441V137.941H86.001V132.179Z" fill="#262626"/>
</svg>
