<svg width="138" height="139" viewBox="0 0 138 139" fill="none" xmlns="http://www.w3.org/2000/svg">
<path d="M133.433 61.7376C132.697 62.3483 131.903 62.8849 131.062 63.3397C130.025 63.8986 128.951 64.4948 127.803 65.0537L124.099 66.8047C122.979 67.363 121.89 67.985 120.84 68.6676C119.956 69.2206 119.137 69.8704 118.396 70.6052C117.75 71.2457 117.377 72.1145 117.359 73.0268C117.359 73.921 118.062 74.331 118.803 73.8093C120.155 72.5326 121.661 71.4311 123.285 70.5306C124.213 70.034 125.235 69.7419 126.284 69.6737C126.964 69.6262 127.643 69.7679 128.247 70.0835C128.859 70.4036 129.442 70.7776 129.988 71.2012C130.506 71.6069 131.065 71.9567 131.655 72.2445C132.046 72.4631 132.486 72.5777 132.933 72.5777C133.38 72.5777 133.82 72.4631 134.211 72.2445C135.489 71.5332 136.591 70.5395 137.433 69.3383C137.986 64.99 138.135 60.5992 137.877 56.2232C137.47 56.9311 137.025 57.6391 136.47 58.4215C135.571 59.627 134.554 60.738 133.433 61.7376Z" fill="#262626"/>
<path d="M63.1722 58.9433C53.8757 72.5427 56.6166 73.8467 56.8018 73.8467C59.3204 74.1448 62.1352 71.3131 64.2093 68.4815C64.839 67.6618 65.4686 66.6931 66.0612 65.9479C68.6315 62.5609 71.0056 59.0278 73.1722 55.3663C73.8016 54.1694 74.3344 52.9234 74.765 51.6405C75.9132 47.9146 71.3946 46.7597 63.1722 58.9433Z" fill="#262626"/>
<path d="M75.5798 113.974L78.1355 114.347L77.3206 111.031L75.5798 113.974Z" fill="#262626"/>
<path d="M51.135 102.2L49.7275 101.567L48.542 104.175L49.9495 104.809C50.9866 105.293 51.7647 105.069 52.1351 104.25C52.5054 103.43 52.172 102.797 51.135 102.2Z" fill="#262626"/>
<path d="M129.915 81.5963C129.163 81.8059 128.37 81.8059 127.618 81.5963C126.996 81.3895 126.409 81.088 125.877 80.7021C125.394 80.3343 124.97 79.8947 124.618 79.3981C124.211 78.802 123.803 78.2431 123.396 77.7588C122.975 77.2464 122.475 76.8061 121.914 76.4548C121.403 76.1346 120.813 75.9667 120.211 75.9704H119.655C118.677 76.133 117.764 76.5722 117.025 77.2371L114.655 79.1373C113.883 79.796 113.052 80.3823 112.173 80.8886C111.467 81.3473 110.644 81.5927 109.803 81.5963C108.433 81.5963 107.618 81.2611 107.248 80.5904C106.804 79.6867 106.724 78.6455 107.025 77.6842C107.449 76.1601 108.112 74.7139 108.988 73.3996C110.034 71.7829 111.278 70.3057 112.692 69.0031C113.839 67.9155 115.078 66.9305 116.396 66.0595L120.655 63.2651C122.063 62.3709 123.285 61.514 124.359 60.7688C125.355 60.1843 126.125 59.2783 126.544 58.198C126.59 58.0178 126.579 57.8277 126.513 57.654C126.447 57.4804 126.328 57.3319 126.174 57.2292C126.019 57.1297 125.839 57.0769 125.655 57.0769C125.471 57.0769 125.292 57.1297 125.137 57.2292C123.855 58.1808 122.446 58.9458 120.951 59.5019C120.001 59.867 119.003 60.0928 117.988 60.1726C113.618 60.1726 111.062 64.271 108.766 67.6243C107.451 69.5068 106.03 71.3107 104.507 73.0268C102.283 75.5219 99.7993 77.7702 97.0992 79.7334C94.9494 81.496 92.4082 82.7103 89.6917 83.273C87.5947 83.6934 85.4172 83.2794 83.6174 82.118C82.8334 81.4155 82.2264 80.5358 81.8465 79.5512C81.4665 78.5666 81.3243 77.5054 81.4319 76.4548C81.4694 75.83 81.5438 75.2079 81.6543 74.5919C78.8215 78.466 74.6433 81.1262 69.9502 82.0436C65.3575 82.0436 65.4689 74.5917 65.58 72.8406C62.7652 76.9763 58.4314 81.4473 53.2091 80.2923C42.9496 77.8705 52.1353 60.4334 52.1353 60.4334C59.5428 46.5732 71.0616 41.2079 75.321 43.1826C76.2763 43.5864 77.0915 44.2652 77.6648 45.1336C78.2381 46.0019 78.5439 47.0211 78.5433 48.0635C79.4322 47.0948 80.0986 46.387 80.6171 45.9027C80.8366 45.6417 81.1087 45.4305 81.4151 45.2828C81.7216 45.1351 82.0552 45.0541 82.3949 45.0456H90.2098C90.2958 45.0452 90.3803 45.07 90.4526 45.1167C90.5249 45.1635 90.5819 45.2305 90.6172 45.3094C90.6525 45.3882 90.6642 45.4756 90.6511 45.5611C90.6379 45.6466 90.6008 45.7263 90.5435 45.7908C84.4655 51.8651 79.456 58.9327 75.7284 66.6928C72.0246 74.9642 74.8766 75.0017 74.8766 75.0017C78.5803 75.0017 86.358 63.8241 88.0247 61.3278V61.1413C91.7285 54.8819 96.6177 48.1008 96.6177 48.1008C102.301 40.5332 106.649 32.0386 109.47 22.9885C109.47 22.3551 110.21 21.8336 110.803 22.1689C123.137 28.3539 114.062 41.0589 111.025 45.0456C111.025 45.0456 105.581 51.9758 101.321 57.5646C97.5751 61.8675 94.3202 66.5789 91.6173 71.611C89.0987 77.3116 94.6175 76.4548 94.6175 76.4548C95.3551 76.3869 96.0595 76.1161 96.6544 75.6723C99.107 74.0486 101.315 72.0785 103.21 69.8227C105.859 66.8718 108.102 63.5759 109.877 60.0236C110.914 57.2642 112.335 54.6673 114.099 52.311C114.863 51.4827 115.817 50.8558 116.877 50.4854C117.707 50.1349 118.62 50.0314 119.507 50.1873C120.187 50.3626 120.828 50.6662 121.396 51.0817L123.248 52.5719C124.039 53.1777 124.968 53.5747 125.951 53.7269C127.279 53.853 128.619 53.6877 129.878 53.2425C131.899 52.549 133.817 51.5841 135.581 50.3738C136.212 49.9478 136.897 49.6093 137.618 49.3677C135.909 38.1153 130.726 27.6881 122.803 19.5608C96.8768 -6.52026 43.8756 -6.52026 18.0602 19.5608C3.98586 33.7191 -1.60692 55.1055 0.393119 75.8585C3.05861 74.2939 6.08503 73.459 9.17106 73.4369C17.0824 73.8097 24.8454 75.7334 32.0236 79.1C32.0236 71.0149 22.727 65.8732 22.727 65.8732C6.2452 56.8567 15.0975 43.5181 15.0975 43.5181C18.4347 37.6384 23.0556 32.5979 28.6118 28.777C34.1681 24.9561 40.5143 22.4546 47.1719 21.461C49.1461 21.1058 51.1787 21.2804 53.0644 21.9672C54.9501 22.6541 56.6225 23.8288 57.9129 25.3731C58.7987 26.8453 59.2671 28.5332 59.2671 30.254C59.2671 31.9748 58.7987 33.6627 57.9129 35.1349C54.8758 41.208 42.0237 52.2366 45.3571 57.4901C45.3823 57.5544 45.3908 57.6243 45.3819 57.6929C45.3731 57.7615 45.3471 57.8265 45.3064 57.8823C45.2658 57.9381 45.2119 57.9828 45.1496 58.012C45.0872 58.0411 45.0183 58.0538 44.9497 58.049C42.0237 57.1921 33.8383 54.323 38.8755 46.2752C43.5052 39.1215 58.0984 31.3717 53.0983 27.1615C53.0983 27.1615 41.9867 25.783 29.6902 39.8668C19.3566 51.5287 19.9865 56.6704 23.431 59.3903C23.431 59.3903 25.8381 61.2905 28.653 63.1161C33.0605 66.2831 40.8756 72.9897 40.3571 82.4534C46.6993 84.9296 53.1795 87.0321 59.7648 88.7501C77.0985 93.7055 100.506 99.0708 109.359 85.7322C109.399 85.6542 109.461 85.5887 109.536 85.5432C109.611 85.4976 109.697 85.4736 109.784 85.4736C109.872 85.4736 109.958 85.4976 110.033 85.5432C110.108 85.5887 110.169 85.6542 110.21 85.7322C112.284 88.7501 120.433 102.424 98.6175 104.101C82.1356 105.367 66.5797 99.0707 58.3203 95.4939C58.3203 95.4939 47.2091 90.3522 39.5053 87.0734C36.5052 97.1705 26.1717 106.187 9.43058 103.877L8.20849 103.691C9.79237 106.919 11.5992 110.032 13.6159 113.006C14.2455 113.9 14.8752 114.794 15.5419 115.651C17.1926 117.819 18.9867 119.873 20.9122 121.798C46.8387 147.88 89.1359 142.775 114.988 116.768C126.141 105.438 133.85 91.1429 137.211 75.5604C136.185 77.0362 135.018 78.4089 133.729 79.659C132.708 80.7153 131.366 81.3972 129.915 81.5963ZM49.3945 106.373L47.9129 105.703L46.9499 107.789L45.2463 106.97L48.6164 99.5179L51.8758 100.971C53.8388 101.902 54.6167 103.504 53.876 105.181C53.6817 105.577 53.4053 105.927 53.0653 106.207C52.7253 106.487 52.3294 106.69 51.9047 106.803C51.48 106.916 51.0361 106.936 50.603 106.862C50.17 106.788 49.7582 106.621 49.3945 106.373ZM53.0983 110.509L56.1723 102.871L57.9129 103.616L54.839 111.068L53.0983 110.509ZM63.1354 114.235L56.3576 111.813L56.765 110.658L62.8393 106.932L58.654 105.442L59.1721 103.989L65.6908 106.299L65.2834 107.454L59.2463 111.18L63.654 112.745L63.1354 114.235ZM71.1357 116.396L64.1726 114.533L64.5058 113.341L70.2468 109.242L65.9874 108.087L66.3577 106.597L73.0247 108.348L72.7281 109.578L66.9875 113.676L71.506 114.868L71.1357 116.396ZM78.9135 117.663L78.4691 115.8L74.7653 115.241L73.7652 116.88L71.8763 116.582L76.6914 109.13L78.5433 109.429L80.9504 118.11L78.9135 117.663Z" fill="#262626"/>
<path d="M9.28195 99.5922C22.6526 100.002 29.0232 87.5204 30.6899 83.72C24.4704 81.5693 17.9327 80.4985 11.3563 80.5531C9.76889 80.5668 8.20287 80.9224 6.76364 81.5962C5.16265 82.3659 3.88931 83.6883 3.1756 85.3225C2.46188 86.9568 2.35504 88.7943 2.87448 90.5011C3.43005 92.4385 4.02266 94.2269 4.72638 96.2761C5.01346 97.0881 5.506 97.8109 6.15553 98.3728C6.80506 98.9348 7.58912 99.3165 8.43016 99.4805L9.28195 99.5922Z" fill="#262626"/>
</svg>
