<svg width="26" height="20" viewBox="0 0 26 20" fill="none" xmlns="http://www.w3.org/2000/svg">
<path d="M25.7964 0.348768C25.6729 0.195736 25.5049 0.0854818 25.316 0.03346C25.1271 -0.0185618 24.9268 -0.00974802 24.7432 0.0586775L0.880868 8.73637C0.650111 8.8213 0.446955 8.96846 0.293559 9.16176C0.140162 9.35507 0.0424229 9.58708 0.0110096 9.83252C-0.0204037 10.078 0.0157131 10.3274 0.115421 10.5535C0.215129 10.7797 0.374597 10.9739 0.576422 11.1151L3.82663 13.3446C4.03702 13.4909 4.28301 13.5766 4.53816 13.5927C4.79331 13.6088 5.04799 13.5545 5.27483 13.4357L8.76365 11.5792C8.83768 11.5375 8.92484 11.5262 9.00695 11.5476C9.08906 11.5691 9.15977 11.6216 9.20435 11.6943C9.24892 11.767 9.26392 11.8542 9.2462 11.9378C9.22848 12.0213 9.17941 12.0948 9.10924 12.1428L6.8629 13.8004C6.68702 13.9321 6.5441 14.1033 6.44553 14.3004C6.34696 14.4976 6.29546 14.7152 6.29514 14.9359V18.7816C6.29581 18.9849 6.35108 19.1843 6.45507 19.3586C6.55907 19.5328 6.70794 19.6755 6.88589 19.7715C7.06385 19.8675 7.26427 19.9132 7.46592 19.9038C7.66757 19.8945 7.86293 19.8303 8.03133 19.7181L10.434 18.1103C10.489 18.0739 10.5534 18.0545 10.6192 18.0545C10.6849 18.0545 10.7493 18.0739 10.8043 18.1103L13.1658 19.7679C13.3935 19.9177 13.6592 19.9983 13.9311 20C14.159 20.0017 14.3835 19.9438 14.5825 19.8319C14.7816 19.72 14.9484 19.558 15.0666 19.3618L25.854 1.4428C25.9584 1.27701 26.009 1.08259 25.9987 0.886518C25.9884 0.690451 25.9177 0.502493 25.7964 0.348768Z" fill="#262626"/>
</svg>
