<svg width="21" height="17" viewBox="0 0 21 17" fill="none" xmlns="http://www.w3.org/2000/svg">
<path fill-rule="evenodd" clip-rule="evenodd" d="M20.9875 2.01146C20.2048 2.3637 19.3745 2.59469 18.5243 2.69669C19.4138 2.1586 20.0804 1.31078 20.3998 0.311065C19.5543 0.814934 18.6304 1.16896 17.6678 1.35795C17.2639 0.929391 16.7787 0.588183 16.2415 0.354844C15.7043 0.121506 15.1262 0.000859942 14.5418 0.000168687C13.9811 -0.00485256 13.4248 0.102271 12.9049 0.315422C12.3849 0.528573 11.9114 0.843579 11.5114 1.24245C11.1114 1.64132 10.7928 2.11624 10.5736 2.64009C10.3545 3.16395 10.2392 3.72649 10.2343 4.29557C10.2336 4.62673 10.2714 4.95682 10.3468 5.279C8.64113 5.1954 6.97118 4.75292 5.44292 3.97962C3.91467 3.20632 2.56147 2.1191 1.46919 0.786922C1.08748 1.44205 0.886643 2.18939 0.887765 2.95048C0.886981 3.65947 1.05965 4.35757 1.39027 4.98213C1.7209 5.6067 2.19914 6.13819 2.78208 6.52892C2.09719 6.5071 1.42693 6.32238 0.825245 5.98962V6.04672C0.825539 6.57906 0.925245 7.10652 1.11908 7.60119C1.38681 8.27821 1.817 8.8766 2.37056 9.34199C2.92412 9.80737 3.5835 10.125 4.28878 10.266C3.9144 10.3601 3.53038 10.4091 3.14469 10.4119C2.8741 10.4123 2.60407 10.3868 2.3382 10.3358C2.61973 11.1957 3.158 11.9454 3.87832 12.4809C4.59865 13.0164 5.46533 13.3111 6.35814 13.3242C4.83156 14.5169 2.95813 15.1618 1.03156 15.1578C0.686821 15.1558 0.34245 15.1346 0 15.0943C1.98225 16.3475 4.27283 17.0073 6.60822 16.9978C9.39392 17.0519 12.1112 16.1193 14.2927 14.3604C16.4743 12.6015 17.9838 10.1262 18.5618 7.36009C18.7543 6.50669 18.8529 5.63422 18.8556 4.75874C18.8556 4.57474 18.8556 4.3844 18.8556 4.20675C19.6962 3.5983 20.4224 2.84189 21 1.97339L20.9875 2.01146Z" fill="#262626"/>
</svg>
