<svg width="24" height="17" viewBox="0 0 24 17" fill="none" xmlns="http://www.w3.org/2000/svg">
<path fill-rule="evenodd" clip-rule="evenodd" d="M15.9788 8.25422L9.49822 11.6269V4.84056L12.4452 6.37671L15.9788 8.25422ZM23.7527 3.66626C23.6412 2.80018 23.3138 1.97317 22.7986 1.25622C22.4892 0.937743 22.1161 0.683349 21.7018 0.508475C21.2875 0.333602 20.8408 0.241905 20.3887 0.23896C17.0247 4.17113e-06 11.9929 0 11.9929 0C11.9929 0 6.96113 4.17113e-06 3.59717 0.23896C3.14399 0.243258 2.69648 0.336913 2.28209 0.514184C1.8677 0.691455 1.49516 0.948604 1.18727 1.26988C0.67388 1.98141 0.350939 2.80473 0.247333 3.66626C0.0931412 4.96512 0.0105918 6.27099 0 7.57832V9.40803C0.0104613 10.7176 0.0930107 12.0258 0.247333 13.3269C0.352083 14.1882 0.674922 15.0112 1.18727 15.7233C1.9077 16.3778 2.85565 16.748 3.84451 16.761C5.7597 16.9386 12.0071 17 12.0071 17C12.0071 17 17.0389 17 20.4028 16.7542C20.8556 16.7476 21.3023 16.6528 21.7164 16.4757C22.1304 16.2986 22.5033 16.0427 22.8127 15.7233C23.327 15.011 23.6544 14.1886 23.7668 13.3269C23.9123 12.0252 23.9902 10.7173 24 9.40803V7.57832C23.99 6.27136 23.9122 4.96569 23.7668 3.66626H23.7527Z" fill="#262626"/>
</svg>
